<svg xmlns="http://www.w3.org/2000/svg" width="140" height="134" viewBox="0 0 140 134">
  <g id="AVATART" transform="translate(-0.469)">
    <path id="Rectangle_5" data-name="Rectangle 5" d="M10,0H130a10,10,0,0,1,10,10V134a0,0,0,0,1,0,0H0a0,0,0,0,1,0,0V10A10,10,0,0,1,10,0Z" transform="translate(0.469)" fill="#fd8469"/>
    <g id="man" transform="translate(0)">
      <ellipse id="Ellipse_2" data-name="Ellipse 2" cx="70" cy="67" rx="70" ry="67" transform="translate(0.469)" fill="#fd8469"/>
      <g id="Group_2" data-name="Group 2" transform="translate(16.148 88.826)">
        <path id="Path_23" data-name="Path 23" d="M253.461,362.8c-.11,0-.22.105-.331.105s-.22-.105-.331-.105Z" transform="translate(-198.81 -355.955)" fill="#84dbff"/>
        <path id="Path_24" data-name="Path 24" d="M165.442,357.125a71.99,71.99,0,0,1-108.642,0c9.145-11.689,23.139-17.482,34.6-20.325-.881,6.95,2.865,16.218,2.975,16.007,3.856-8.425,16.748-9.162,16.748-9.162s12.892.737,16.638,9.162c.11.211,3.967-9.057,2.975-16.007C142.3,339.643,156.407,345.435,165.442,357.125Z" transform="translate(-56.8 -336.8)" fill="#84dbff"/>
      </g>
      <path id="Path_25" data-name="Path 25" d="M228.313,300.507v.105c0,1.053-.551,7.793-15.426,13.164h-.661c-14.875-5.371-15.426-12.111-15.426-13.164v-.105a17.734,17.734,0,0,1,.661-4.107c4.3,5.16,9.476,8.635,15.1,8.635s10.8-3.475,15.1-8.635A17.737,17.737,0,0,1,228.313,300.507Z" transform="translate(-142.088 -218.21)" fill="#fff"/>
      <g id="Group_3" data-name="Group 3" transform="translate(50.644 82.297)">
        <path id="Path_26" data-name="Path 26" d="M269.756,312s.771,7.582-15.756,13.48c0,0,12.892.737,16.638,9.162C270.858,334.852,278.241,316.528,269.756,312Z" transform="translate(-234.175 -312)" fill="#54c0eb"/>
        <path id="Path_27" data-name="Path 27" d="M186.1,312c-8.484,4.528-1.1,22.852-.881,22.536,3.857-8.425,16.638-9.162,16.638-9.162C185.327,319.582,186.1,312,186.1,312Z" transform="translate(-182.03 -312)" fill="#54c0eb"/>
      </g>
      <g id="Group_4" data-name="Group 4" transform="translate(41.338 28.618)">
        <path id="Path_28" data-name="Path 28" d="M218.016,135.146a29.493,29.493,0,0,1-8.925,17.271,21.1,21.1,0,0,1-2.975,2.422l-1.763-5.371H185.4l-1.763,5.371c-3.526-2.527-10.908-9.583-11.018-16.218-3.085-37.806,27.216-29.8,27.216-29.8C220.22,107.449,219.559,124.615,218.016,135.146Z" transform="translate(-165.747 -108.11)" fill="#fff"/>
        <path id="Path_29" data-name="Path 29" d="M338.019,208.51a11.136,11.136,0,0,1-5.619,4.739,43.416,43.416,0,0,0,1.983-5.266v-.105l1.322-4.739h-.11c.441-1.58.881-3.159,1.212-4.739a3.233,3.233,0,0,1,1.322.421C340.554,200.3,340.444,204.613,338.019,208.51Z" transform="translate(-281.674 -174.629)" fill="#fff"/>
        <path id="Path_30" data-name="Path 30" d="M155.783,214.133a11.137,11.137,0,0,1-5.619-4.739c-2.534-3.9-2.534-8.214-.11-9.583.22-.105.331-.211.551-.211a69.514,69.514,0,0,0,3.2,9.373A49.586,49.586,0,0,0,155.783,214.133Z" transform="translate(-148.249 -175.513)" fill="#fff"/>
      </g>
      <path id="SVGCleanerId_0" d="M186.6,45.433c.881-9.689-15.206-9.057-15.206-9.057-24.351,3.37-27,25.064-27,25.064l3.305-3.791c-5.179,10.847,2.644,29.487,3.306,30.961,4.077,12.953,13.112,24.853,23.579,24.853s19.5-11.9,23.579-24.853h0v-.105c.441-1.58.881-3.159,1.212-4.739h-.11c2.2-8.425,4.628-16.955,4.628-16.955C210.18,36.587,186.6,45.433,186.6,45.433Zm11.129,36.859A29.493,29.493,0,0,1,188.8,99.563a30.046,30.046,0,0,1-2.975,2.422l-1.763-5.266H165.115l-1.763,5.371a33.543,33.543,0,0,1-8.925-10,21.662,21.662,0,0,1-2.093-6.213c-3.085-37.806,27.216-29.8,27.216-29.8C199.933,54.6,199.272,71.761,197.729,82.292Z" transform="translate(-104.122 -26.638)" fill="#324a5e"/>
      <g id="Group_5" data-name="Group 5" transform="translate(40.278 9.73)">
        <path id="SVGCleanerId_0_1_" d="M186.6,45.433c.881-9.689-15.206-9.057-15.206-9.057-24.351,3.37-27,25.064-27,25.064l3.305-3.791c-5.179,10.847,2.644,29.487,3.306,30.961,4.077,12.953,13.112,24.853,23.579,24.853s19.5-11.9,23.579-24.853h0v-.105c.441-1.58.881-3.159,1.212-4.739h-.11c2.2-8.425,4.628-16.955,4.628-16.955C210.18,36.587,186.6,45.433,186.6,45.433Zm11.129,36.859A29.493,29.493,0,0,1,188.8,99.563a30.046,30.046,0,0,1-2.975,2.422l-1.763-5.266H165.115l-1.763,5.371a33.543,33.543,0,0,1-8.925-10,21.662,21.662,0,0,1-2.093-6.213c-3.085-37.806,27.216-29.8,27.216-29.8C199.933,54.6,199.272,71.761,197.729,82.292Z" transform="translate(-144.4 -36.368)" fill="#324a5e"/>
      </g>
      <path id="Path_31" data-name="Path 31" d="M186.6,45.433c.881-9.689-15.206-9.057-15.206-9.057-24.351,3.37-27,25.064-27,25.064l3.305-3.791c-5.179,10.847,2.644,29.487,3.306,30.961,4.077,12.953,13.112,24.853,23.579,24.853s19.5-11.9,23.579-24.853h0v-.105c.441-1.58.881-3.159,1.212-4.739h-.11c2.2-8.425,4.628-16.955,4.628-16.955C210.18,36.587,186.6,45.433,186.6,45.433Zm11.129,36.859A29.493,29.493,0,0,1,188.8,99.563a30.046,30.046,0,0,1-2.975,2.422l-1.763-5.266H165.115l-1.763,5.371c-3.526-2.527-10.908-9.583-11.019-16.218-3.085-37.806,27.216-29.8,27.216-29.8C199.933,54.6,199.272,71.761,197.729,82.292Z" transform="translate(-104.122 -26.638)" fill="#324a5e"/>
      <path id="Path_32" data-name="Path 32" d="M226,279.2a10.613,10.613,0,0,0,7.713,3.37,10.225,10.225,0,0,0,7.713-3.37Z" transform="translate(-163.244 -205.538)" fill="#fff"/>
    </g>
  </g>
</svg>
