<svg xmlns="http://www.w3.org/2000/svg" width="33.295" height="27.925" viewBox="0 0 33.295 27.925">
  <g id="cargo" transform="translate(0.001 0)">
    <path id="Path_175" data-name="Path 175" d="M18.74,148.888H8l1.391-11.116a2.018,2.018,0,0,1,2-1.772h5.322a2.026,2.026,0,0,1,2.025,2.025Zm0,0" transform="translate(-7.464 -126.87)" fill="#d3a06c"/>
    <path id="Path_176" data-name="Path 176" d="M170.148,172.3v3.222H168V168a2.147,2.147,0,0,1,2.148,2.148Zm0,0" transform="translate(-156.723 -156.722)" fill="#cf9e76"/>
    <path id="Path_177" data-name="Path 177" d="M173.37,280h8.592a5.364,5.364,0,0,0-4.919,3.222H168V280Zm0,0" transform="translate(-156.723 -261.204)" fill="#cf9e76"/>
    <path id="Path_178" data-name="Path 178" d="M210.552,131.477l.006.006a8.643,8.643,0,0,1-2.213.768l-5.123,1.026L200,130.054l1.026-5.123a8.644,8.644,0,0,1,.768-2.213Zm0,0" transform="translate(-186.575 -114.481)" fill="#fcd770"/>
    <path id="Path_179" data-name="Path 179" d="M293.276,43.222l-1.026,5.123a8.643,8.643,0,0,1-.768,2.213l-8.764-8.764a8.643,8.643,0,0,1,2.213-.768L290.054,40Zm0,0" transform="translate(-263.741 -37.314)" fill="#fcd770"/>
    <path id="Path_180" data-name="Path 180" d="M108.3,8v2.148h-.537a1.616,1.616,0,0,0-1.611,1.611v4.833H104V11.759A3.763,3.763,0,0,1,107.759,8Zm0,0" transform="translate(-97.019 -7.463)" fill="#969faa"/>
    <path id="Path_181" data-name="Path 181" d="M10.8,281.074v2.148H8.128a.466.466,0,0,1,.005-.123L8.52,280H9.729a1.077,1.077,0,0,1,1.074,1.074Zm0,0" transform="translate(-7.581 -261.204)" fill="#ff826e"/>
    <path id="Path_182" data-name="Path 182" d="M427.222,232v1.074a2.148,2.148,0,0,1-2.148,2.148H424v-1.074A2.148,2.148,0,0,1,426.148,232Zm0,0" transform="translate(-395.539 -216.426)" fill="#ff826e"/>
    <path id="Path_183" data-name="Path 183" d="M306.74,285.37h-2.148a3.222,3.222,0,1,0-6.444,0H296a5.37,5.37,0,0,1,10.74,0Zm0,0" transform="translate(-276.131 -261.204)" fill="#ccd1d9"/>
    <path id="Path_184" data-name="Path 184" d="M12.581,328a3.207,3.207,0,0,0-.822,2.148H10.025A2.026,2.026,0,0,1,8,328.123.5.5,0,0,1,8.011,328Zm0,0" transform="translate(-7.464 -305.982)" fill="#e6e9ed"/>
    <path id="Path_185" data-name="Path 185" d="M149.12,328h9.043a5.306,5.306,0,0,0-.451,2.148h-9.129a3.207,3.207,0,0,0-.822-2.148Zm0,0" transform="translate(-137.844 -305.982)" fill="#e6e9ed"/>
    <path id="Path_186" data-name="Path 186" d="M69.623,313.074a3.22,3.22,0,1,1-2.4-1.074A3.207,3.207,0,0,1,69.623,313.074Zm0,0" transform="translate(-59.705 -291.056)" fill="#838f9b"/>
    <path id="Path_187" data-name="Path 187" d="M331.222,312A3.222,3.222,0,1,1,328,315.222,3.225,3.225,0,0,1,331.222,312Zm0,0" transform="translate(-305.983 -291.056)" fill="#838f9b"/>
    <path id="Path_188" data-name="Path 188" d="M98.148,345.074A1.074,1.074,0,1,1,97.074,344,1.074,1.074,0,0,1,98.148,345.074Zm0,0" transform="translate(-89.556 -320.908)" fill="#ccd1d9"/>
    <path id="Path_189" data-name="Path 189" d="M362.148,345.074A1.074,1.074,0,1,1,361.074,344,1.074,1.074,0,0,1,362.148,345.074Zm0,0" transform="translate(-335.835 -320.908)" fill="#ccd1d9"/>
    <path id="Path_190" data-name="Path 190" d="M53.907,168.537v4.833H48l.489-4.887A.536.536,0,0,1,49.02,168h4.35A.539.539,0,0,1,53.907,168.537Zm0,0" transform="translate(-44.779 -156.722)" fill="#69d6f4"/>
    <path id="Path_191" data-name="Path 191" d="M239.236,75.477l.005.006a8.6,8.6,0,0,1-3.759,3.759l-8.764-8.764a8.6,8.6,0,0,1,3.759-3.759Zm0,0" transform="translate(-211.5 -62.239)" fill="#e6e9ed"/>
    <path id="Path_192" data-name="Path 192" d="M264.11,64v.537l-1.074,2.148v8.592h-1.074a2.148,2.148,0,0,0-2.148,2.148V78.5H248l5.123-1.026a8.589,8.589,0,0,0,6.739-6.739l1.026-5.123L259.277,64Zm0,0" transform="translate(-231.353 -59.704)" fill="#ffeaa7"/>
    <path id="Path_193" data-name="Path 193" d="M381.583,78.915l1.053.21.667-3.335-1.446-1.446-.759.759,1.039,1.04Zm0,0" transform="translate(-355.516 -69.353)"/>
    <path id="Path_194" data-name="Path 194" d="M89.611,336a1.611,1.611,0,1,0,1.611,1.611A1.613,1.613,0,0,0,89.611,336Zm0,2.148a.537.537,0,1,1,.537-.537A.538.538,0,0,1,89.611,338.148Zm0,0" transform="translate(-82.093 -313.445)"/>
    <path id="Path_195" data-name="Path 195" d="M28.147,3.759,26.49,2.1,21.085,3.184a9.1,9.1,0,0,0-7.162,7.161l-.344,1.72a2.68,2.68,0,0,0-1.8-1.274A2.551,2.551,0,0,0,9.666,8.634V4.3A1.075,1.075,0,0,1,10.74,3.222h1.074V0H10.74a4.3,4.3,0,0,0-4.3,4.3v4.3H3.933a2.563,2.563,0,0,0-2.54,2.241L.019,21.826a2.616,2.616,0,0,0-.02.317A2.562,2.562,0,0,0,2.559,24.7H3.8a3.754,3.754,0,0,0,7.432,0H21.523a3.754,3.754,0,0,0,7.432,0h2.191v-.537a5.9,5.9,0,0,0-2.521-4.833h.91a2.688,2.688,0,0,0,2.685-2.685V7.108L33.294,4.96v-1.2ZM21.3,4.237l4.841-.968,2.816,2.816-.968,4.842a8.047,8.047,0,0,1-.414,1.386L19.908,4.651A8.073,8.073,0,0,1,21.3,4.237Zm-2.414.905,8.2,8.2a8.015,8.015,0,0,1-3,3l-8.2-8.2a8.015,8.015,0,0,1,3-3ZM10.909,22.555h8.652a5.919,5.919,0,0,0-.2,1.074H11.234a3.729,3.729,0,0,0-.325-1.074Zm9.075-1.074h-8.17V19.333H21.853a5.942,5.942,0,0,0-1.869,2.148ZM13.962,16.87l1.389,1.389H13.962Zm2.862,1.343L14.008,15.4l.968-4.842a8.054,8.054,0,0,1,.414-1.386l7.661,7.661a8.074,8.074,0,0,1-1.387.414Zm-3.936-4.788v4.833H11.814V11.913a1.609,1.609,0,0,1,1.074,1.512ZM7.518,4.3A3.225,3.225,0,0,1,10.74,1.074V2.148A2.15,2.15,0,0,0,8.592,4.3v4.3H7.518ZM2.459,10.967a1.488,1.488,0,0,1,1.474-1.3H9.254a1.487,1.487,0,0,1,1.485,1.485V21.481h-.6a3.746,3.746,0,0,0-5.251,0H3.758V19.87a1.613,1.613,0,0,0-1.611-1.611h-.6Zm.226,10.514H1.145l.269-2.148h.734a.538.538,0,0,1,.537.537ZM1.138,22.555H4.126A3.728,3.728,0,0,0,3.8,23.629H2.559a1.483,1.483,0,0,1-1.42-1.074Zm6.379,4.3A2.685,2.685,0,1,1,10.2,24.166,2.688,2.688,0,0,1,7.518,26.851Zm17.722,0a2.685,2.685,0,1,1,2.685-2.685A2.688,2.688,0,0,1,25.239,26.851Zm4.8-3.222H28.955a3.754,3.754,0,0,0-7.432,0H20.438a4.832,4.832,0,0,1,9.6,0Zm-.507-5.37H29v-.537a1.613,1.613,0,0,1,1.611-1.611h.537v.537A1.613,1.613,0,0,1,29.535,18.259Zm1.611-11.4v8.182h-.537a2.688,2.688,0,0,0-2.685,2.685v.537H22.038a9.1,9.1,0,0,0,7-7.123l1.081-5.405-.9-.9h2.936Zm0,0" transform="translate(0)"/>
    <path id="Path_196" data-name="Path 196" d="M353.611,336a1.611,1.611,0,1,0,1.611,1.611A1.613,1.613,0,0,0,353.611,336Zm0,2.148a.537.537,0,1,1,.537-.537A.538.538,0,0,1,353.611,338.148Zm0,0" transform="translate(-328.372 -313.445)"/>
    <path id="Path_197" data-name="Path 197" d="M46.2,161.074A1.075,1.075,0,0,0,45.124,160H40.776a1.07,1.07,0,0,0-1.069.967l-.548,5.477H46.2Zm-1.074,4.3H40.347l.43-4.3h4.347Zm0,0" transform="translate(-36.532 -149.259)"/>
    <path id="Path_198" data-name="Path 198" d="M290.34,131.1l.759-.759.759.759-.759.759Zm0,0" transform="translate(-270.851 -121.594)"/>
    <path id="Path_199" data-name="Path 199" d="M312.965,153.736l.759-.759.76.759-.76.759Zm0,0" transform="translate(-291.957 -142.707)"/>
    <path id="Path_200" data-name="Path 200" d="M335.6,176.342l.759-.759.721.721-.76.759Zm0,0" transform="translate(-313.071 -163.796)"/>
  </g>
</svg>
