<svg xmlns="http://www.w3.org/2000/svg" width="26.931" height="27.86" viewBox="0 0 26.931 27.86">
  <g id="carpenter" transform="translate(-8.541)">
    <path id="Path_266" data-name="Path 266" d="M146.722,340.966v5.66H133.13v-5.66a3.856,3.856,0,0,1,3.856-3.856h5.88A3.856,3.856,0,0,1,146.722,340.966Z" transform="translate(-117.81 -318.767)" fill="#5d9eba"/>
    <rect id="Rectangle_6" data-name="Rectangle 6" width="6.032" height="5.656" transform="translate(19.1 17.588)" fill="#71c5f4"/>
    <path id="Path_267" data-name="Path 267" d="M136.91,337.133v.878a3.851,3.851,0,0,0-1.4,2.977v5.66H133.13v-5.66A3.855,3.855,0,0,1,136.91,337.133Z" transform="translate(-117.81 -318.789)" fill="#508da3"/>
    <path id="Path_268" data-name="Path 268" d="M213.588,275.176v3.464a2.713,2.713,0,1,1-5.426,0v-3.464Z" transform="translate(-188.759 -260.203)" fill="#e0b394"/>
    <path id="Path_269" data-name="Path 269" d="M205.458,276.247a3.028,3.028,0,0,1-3.025-3.025v-3.464a.312.312,0,0,1,.312-.312h5.426a.312.312,0,0,1,.312.312v3.464A3.028,3.028,0,0,1,205.458,276.247Zm-2.4-6.177v3.152a2.4,2.4,0,0,0,4.8,0v-3.152Z" transform="translate(-183.342 -254.786)" fill="#5d9eba"/>
    <path id="Path_270" data-name="Path 270" d="M135.77,368.149v4.805h-2.64v-5.66a3.838,3.838,0,0,1,.792-2.341A3.794,3.794,0,0,1,135.77,368.149Z" transform="translate(-117.81 -345.095)" fill="#6abfe5"/>
    <path id="Path_271" data-name="Path 271" d="M334.4,368.149v4.805h2.64v-5.66a3.838,3.838,0,0,0-.792-2.341A3.794,3.794,0,0,0,334.4,368.149Z" transform="translate(-308.133 -345.095)" fill="#71c5f4"/>
    <rect id="Rectangle_7" data-name="Rectangle 7" width="4.863" height="1.903" transform="translate(19.684 25.957)" fill="#ccc"/>
    <rect id="Rectangle_8" data-name="Rectangle 8" width="2.057" height="8.884" transform="translate(31.534 18.976)" fill="#f9c573"/>
    <rect id="Rectangle_9" data-name="Rectangle 9" width="0.502" height="8.884" transform="translate(31.534 18.976)" fill="#e2af66"/>
    <path id="Path_272" data-name="Path 272" d="M13.6,150.187l-.014-13.242,2.456,0,.719,1.134-.177,1.279.719,1.134-.177,1.279.719,1.134-.177,1.279.718,1.134-.176,1.279.719,1.134-.177,1.279.719,1.134-.173,1.252Z" transform="translate(-4.773 -129.491)" fill="#e6e6e6"/>
    <path id="Path_273" data-name="Path 273" d="M15.629,375.764l-2.441-2.192a1.525,1.525,0,0,0-1.2-.38l-3.446.414.006,6.286a.361.361,0,0,0,.532.318l.281-.151a1.157,1.157,0,0,1,1.121.014h0a5.045,5.045,0,0,0,3.908.461l.615-.179a.986.986,0,0,0,.71-.97Zm-2.135,2.428H10.95a.78.78,0,0,1,0-1.559h2.544a.78.78,0,0,1,0,1.559Z" transform="translate(0 -352.876)" fill="#ea8249"/>
    <g id="Group_13" data-name="Group 13" transform="translate(14.217 10.166)">
      <path id="Path_274" data-name="Path 274" d="M114.247,189.729a1.455,1.455,0,0,1,.066-2.908,1.425,1.425,0,0,1,.213.016Z" transform="translate(-112.859 -186.821)" fill="#e0b394"/>
      <path id="Path_275" data-name="Path 275" d="M372.793,189.729a1.455,1.455,0,0,0-.066-2.908,1.5,1.5,0,0,0-.213.016Z" transform="translate(-358.385 -186.821)" fill="#e0b394"/>
    </g>
    <path id="Path_276" data-name="Path 276" d="M141.067,72.507l-2.559-1.859a4.719,4.719,0,0,1-1.923-4.271l.444-4.594a6.172,6.172,0,0,1,6.143-5.578h0a6.172,6.172,0,0,1,6.143,5.578l.444,4.594a4.719,4.719,0,0,1-1.923,4.271l-2.559,1.859A3.58,3.58,0,0,1,141.067,72.507Z" transform="translate(-121.055 -53.146)" fill="#f7cba4"/>
    <path id="Path_277" data-name="Path 277" d="M138.185,67.308a2.849,2.849,0,0,0,.663,2l2.675,3.287a2.131,2.131,0,0,0,.469.418,3.558,3.558,0,0,1-.917-.481l-2.559-1.859a4.718,4.718,0,0,1-1.923-4.271l.443-4.594a6.17,6.17,0,0,1,6.051-5.576c-1.933.047-4.121,1.869-4.235,3.809Z" transform="translate(-121.063 -53.173)" fill="#e8ba97"/>
    <path id="Path_278" data-name="Path 278" d="M143.2,6.983h-.206A6.144,6.144,0,0,0,138.129.975h0V.417A.417.417,0,0,0,137.712,0H135.99a.417.417,0,0,0-.417.417V.975a6.143,6.143,0,0,0-4.863,6.008H130.5a.417.417,0,0,0-.409.335l-.208,1.036a.417.417,0,0,0,.409.5h3.722l.538,1.559h4.591l.538-1.559h3.722a.417.417,0,0,0,.409-.5l-.208-1.036A.418.418,0,0,0,143.2,6.983Z" transform="translate(-114.735 0)" fill="#ea8249"/>
    <g id="Group_14" data-name="Group 14" transform="translate(9.89)">
      <path id="Path_279" data-name="Path 279" d="M132.715,6.983c0-2.953,1.4-5.42,3.275-6.008V0h0a.417.417,0,0,0-.417.417V.975a6.143,6.143,0,0,0-4.863,6.008H130.5a.417.417,0,0,0-.409.335l-.208,1.036a.417.417,0,0,0,.409.5h3.251l.253-1.87h-1.085Z" transform="translate(-124.624)" fill="#d36f3d"/>
      <path id="Path_280" data-name="Path 280" d="M36.934,433.565H34.39a1.06,1.06,0,0,1,0-2.12h2.544a1.06,1.06,0,0,1,0,2.12Zm-2.544-1.559a.5.5,0,0,0,0,1h2.544a.5.5,0,0,0,0-1Z" transform="translate(-33.33 -407.969)" fill="#d36f3d"/>
    </g>
    <g id="Group_15" data-name="Group 15" transform="translate(29.654 5.538)">
      <path id="Path_281" data-name="Path 281" d="M402.057,298.889h-5.2a.31.31,0,0,0-.31.31v2.6a.31.31,0,0,0,.31.31h5.2a.31.31,0,0,0,.31-.31v-2.6A.31.31,0,0,0,402.057,298.889Z" transform="translate(-396.549 -288.164)" fill="gray"/>
      <path id="Path_282" data-name="Path 282" d="M447.318,186.126a.341.341,0,0,1-.195-.061l-1.461-1.011a.343.343,0,0,1,.39-.564l1.461,1.011a.343.343,0,0,1-.2.625Z" transform="translate(-442.85 -179.931)" fill="gray"/>
      <path id="Path_283" data-name="Path 283" d="M433.523,197.612l-1.879,2.111,1.315-2.5.161-.306.633.438Z" transform="translate(-429.734 -191.739)" fill="gray"/>
      <path id="Path_284" data-name="Path 284" d="M404.665,102.328a.341.341,0,0,1-.166.119l-1.688.553a.343.343,0,1,1-.214-.652l1.688-.553a.343.343,0,0,1,.38.533Z" transform="translate(-402.044 -101.778)" fill="gray"/>
      <path id="Path_285" data-name="Path 285" d="M418.589,112.381l.548,2.773-1.2-2.559-.147-.313.731-.24Z" transform="translate(-416.635 -111.483)" fill="gray"/>
    </g>
    <path id="Path_286" data-name="Path 286" d="M218.048,281.922s-.036.087-.11.225c-.018.036-.039.073-.063.113s-.06.08-.1.126-.075.092-.117.143a.478.478,0,0,1-.049.052l-.02.019-.075.07c-.051.048-.107.1-.165.145s-.127.087-.194.133c-.034.023-.069.045-.1.068s-.074.039-.112.058c-.076.039-.155.076-.237.113a3.051,3.051,0,0,1-.531.153,2.778,2.778,0,0,1-1.138,0,3.053,3.053,0,0,1-.531-.153q-.122-.055-.238-.113c-.038-.019-.076-.037-.112-.058l-.1-.068c-.067-.046-.133-.089-.195-.133s-.113-.1-.165-.145l-.074-.07-.026-.024a.417.417,0,0,1-.042-.046c-.041-.049-.08-.095-.114-.14s-.067-.085-.094-.125-.048-.081-.067-.117a2.059,2.059,0,0,1-.11-.227s.092.028.234.085c.036.014.074.031.115.047s.09.03.138.046.1.036.151.055.11.033.168.051.116.037.176.056.126.03.191.045c.032.007.064.017.1.026s.067.012.1.019q.1.018.2.041c.142.013.281.044.427.05s.291.014.437.022c.147-.009.294,0,.438-.022s.286-.037.427-.05c.068-.015.136-.029.2-.041.034-.007.068-.011.1-.019l.1-.026c.065-.016.128-.032.191-.046s.119-.039.177-.056.117-.031.167-.05.1-.037.148-.052.093-.032.137-.045.082-.037.119-.051A2.474,2.474,0,0,1,218.048,281.922Z" transform="translate(-193.492 -266.582)" fill="#f2f2f2"/>
    <g id="Group_16" data-name="Group 16" transform="translate(18.873 11.569)">
      <path id="Path_287" data-name="Path 287" d="M225.045,293.959l-.02.019-.075.07c-.051.048-.107.1-.165.145s-.127.087-.194.133c-.034.023-.069.045-.1.068s-.074.039-.112.058c-.076.039-.155.076-.237.113a3.054,3.054,0,0,1-.531.153,2.779,2.779,0,0,1-1.138,0,3.056,3.056,0,0,1-.531-.153q-.123-.055-.238-.113c-.038-.019-.076-.037-.112-.058l-.1-.068c-.067-.046-.133-.089-.195-.133s-.113-.1-.165-.145l-.074-.07-.026-.024.06.021c.049.016.1.036.151.054s.11.034.168.051.116.037.176.056.126.03.191.045l.1.025c.033.008.067.012.1.019.068.012.136.026.2.041.142.014.281.045.427.05s.291.014.437.023c.147-.009.294,0,.438-.022s.286-.036.427-.049c.068-.015.136-.029.2-.041.034-.007.068-.011.1-.019l.1-.025c.065-.016.128-.032.191-.046s.119-.039.177-.055.117-.032.167-.051.1-.037.148-.052Z" transform="translate(-219.796 -289.528)" fill="#4d4d4d"/>
      <path id="Path_288" data-name="Path 288" d="M198.884,214.291a.468.468,0,0,1-.468-.468v-.748a.468.468,0,1,1,.935,0v.748A.468.468,0,0,1,198.884,214.291Z" transform="translate(-198.416 -212.608)" fill="#4d4d4d"/>
      <path id="Path_289" data-name="Path 289" d="M300.9,214.291a.468.468,0,0,1-.468-.468v-.748a.468.468,0,1,1,.935,0v.748A.468.468,0,0,1,300.9,214.291Z" transform="translate(-294.881 -212.608)" fill="#4d4d4d"/>
    </g>
    <g id="Group_17" data-name="Group 17" transform="translate(21.399 11.35)">
      <path id="Path_290" data-name="Path 290" d="M246.274,208.6v2.213a.717.717,0,0,1-.717.717h0a.717.717,0,0,1-.717-.717V208.6" transform="translate(-244.84 -208.598)" fill="#e0b394"/>
      <circle id="Ellipse_20" data-name="Ellipse 20" cx="0.343" cy="0.343" r="0.343" transform="translate(0.374 5.838)" fill="#e0b394"/>
    </g>
  </g>
</svg>
