<svg xmlns="http://www.w3.org/2000/svg" width="32.036" height="32.031" viewBox="0 0 32.036 32.031">
  <g id="crane" transform="translate(-0.057 -0.057)">
    <path id="Path_131" data-name="Path 131" d="M251,140l-3-3,1-1,4,4Z" transform="translate(-232.428 -127.437)" fill="#f98800"/>
    <path id="Path_132" data-name="Path 132" d="M227,282h-2a1,1,0,1,1,0-2h2a1,1,0,1,0,0,2Z" transform="translate(-209.93 -262.426)" fill="#b7b6b7"/>
    <path id="Path_133" data-name="Path 133" d="M213.006,314h-4a1,1,0,0,1,0-2h4a1,1,0,1,0,0,2Z" transform="translate(-194.931 -292.423)" fill="#b7b6b7"/>
    <path id="Path_134" data-name="Path 134" d="M371.362,283.508h-2.308V281.2Zm-2.308.994h2.308l-2.308,2.308Zm.7,4h2.308v2.308Zm2.308-.994h-2.308l2.308-2.308Zm-3.011,1.7,2.308,2.308h-2.308ZM368.06,280v14.017a.5.5,0,1,0,.994,0v-1.506h2.308l-1.154,1.154a.5.5,0,0,0,.7.7l1.154-1.154v.8a.5.5,0,0,0,.994,0V280Zm4,2.8-2.308-2.308h2.308Z" transform="translate(-344.976 -262.426)" fill="#fcc200"/>
    <path id="Path_135" data-name="Path 135" d="M293.016,72V83.013h1v2H280v-2h3V77.006L288.01,72Z" transform="translate(-262.426 -67.442)" fill="#fcc200"/>
    <path id="Path_136" data-name="Path 136" d="M384.977,166.034a3.5,3.5,0,0,0,4.683.182l-2.08-2.459Z" transform="translate(-360.834 -153.457)" fill="#fff599"/>
    <path id="Path_137" data-name="Path 137" d="M369.218,117.567a3.5,3.5,0,0,0-.157,5.167l2.6-2.277Z" transform="translate(-344.919 -110.157)" fill="#fac8b2"/>
    <path id="Path_138" data-name="Path 138" d="M393.269,107.5a3.5,3.5,0,0,0-5.789-2.655l2.446,2.89,2.08,2.459A3.5,3.5,0,0,0,393.269,107.5Z" transform="translate(-363.18 -97.439)" fill="#ffec00"/>
    <path id="Path_139" data-name="Path 139" d="M374.061,103.558a.5.5,0,0,1-.38-.176l-5.507-6.508a.5.5,0,1,1,.759-.642l5.507,6.508a.5.5,0,0,1-.379.818Z" transform="translate(-344.973 -89.993)" fill="#f98800"/>
    <path id="Path_140" data-name="Path 140" d="M353.054,153.05h-.5a.5.5,0,1,1,0-.994h.5a.5.5,0,1,1,0,.994Z" transform="translate(-329.974 -142.488)" fill="#fac8b2"/>
    <path id="Path_141" data-name="Path 141" d="M368.554,163.553a.5.5,0,0,1-.318-.879l3-2.5a.5.5,0,1,1,.636.764l-3,2.5A.5.5,0,0,1,368.554,163.553Z" transform="translate(-344.972 -149.988)" fill="#f98800"/>
    <path id="Path_142" data-name="Path 142" d="M402,218h-2v-1a1,1,0,0,1,1-1h0a1,1,0,0,1,1,1Z" transform="translate(-374.917 -202.431)" fill="#c9e6fa"/>
    <path id="Path_143" data-name="Path 143" d="M280,248h14.017v2H280Z" transform="translate(-262.426 -232.428)" fill="#f98800"/>
    <g id="Group_8" data-name="Group 8" transform="translate(3.557 23.581)">
      <path id="Path_144" data-name="Path 144" d="M56,376h6.007v8.01H56Z" transform="translate(-56 -376)" fill="#efeeef"/>
      <path id="Path_145" data-name="Path 145" d="M152,456h8.01v3H152Z" transform="translate(-145.993 -450.994)" fill="#efeeef"/>
      <path id="Path_146" data-name="Path 146" d="M253.006,392v7.008h-3v-3h-2v-4Z" transform="translate(-235.986 -390.999)" fill="#efeeef"/>
    </g>
    <path id="Path_147" data-name="Path 147" d="M136,112v1l1,1,1-1v-1Z" transform="translate(-127.437 -104.938)" fill="#ffec00"/>
    <path id="Path_148" data-name="Path 148" d="M60.014,249a1,1,0,0,1,1-1H49a1,1,0,1,0,0,2H61.016A1,1,0,0,1,60.014,249Z" transform="translate(-44.943 -232.428)" fill="#efeeef"/>
    <path id="Path_149" data-name="Path 149" d="M60.014,264H48a1,1,0,0,0,1,1H61.016A1,1,0,0,1,60.014,264Z" transform="translate(-44.943 -247.427)" fill="#d6d4d6"/>
    <circle id="Ellipse_12" data-name="Ellipse 12" cx="1.001" cy="1.001" r="1.001" transform="translate(15.071 15.572)" fill="#c4d4de"/>
    <path id="Path_150" data-name="Path 150" d="M45.016,282H33a1,1,0,1,1,0-2H45.016a1,1,0,1,0,0,2Z" transform="translate(-29.945 -262.426)" fill="#efeeef"/>
    <path id="Path_151" data-name="Path 151" d="M44.014,296H32a1,1,0,0,0,1,1H45.016A1,1,0,0,1,44.014,296Z" transform="translate(-29.945 -277.425)" fill="#d6d4d6"/>
    <circle id="Ellipse_13" data-name="Ellipse 13" cx="1.001" cy="1.001" r="1.001" transform="translate(14.07 17.574)" fill="#c4d4de"/>
    <circle id="Ellipse_14" data-name="Ellipse 14" cx="1.001" cy="1.001" r="1.001" transform="translate(16.072 17.574)" fill="#c4d4de"/>
    <path id="Path_152" data-name="Path 152" d="M29.016,314H17a1,1,0,0,1,0-2H29.016a1,1,0,0,0,0,2Z" transform="translate(-14.946 -292.423)" fill="#efeeef"/>
    <path id="Path_153" data-name="Path 153" d="M28.014,328H16a1,1,0,0,0,1,1H29.016A1,1,0,0,1,28.014,328Z" transform="translate(-14.946 -307.422)" fill="#d6d4d6"/>
    <circle id="Ellipse_15" data-name="Ellipse 15" cx="1.001" cy="1.001" r="1.001" transform="translate(13.069 19.577)" fill="#c4d4de"/>
    <circle id="Ellipse_16" data-name="Ellipse 16" cx="1.001" cy="1.001" r="1.001" transform="translate(15.071 19.577)" fill="#c4d4de"/>
    <circle id="Ellipse_17" data-name="Ellipse 17" cx="1.001" cy="1.001" r="1.001" transform="translate(17.073 19.577)" fill="#c4d4de"/>
    <path id="Path_154" data-name="Path 154" d="M40.561,194.562a.5.5,0,0,1-.444-.719l2.832-5.664-3.388-2.965-3.6,3.153L33,194.287a.5.5,0,1,1-.889-.445l3-6.007a.5.5,0,0,1,.117-.152l4-3.5a.5.5,0,0,1,.655,0l4,3.5a.5.5,0,0,1,.117.6l-3,6.007a.5.5,0,0,1-.445.275Z" transform="translate(-29.996 -172.486)" fill="#f98800"/>
    <path id="Path_155" data-name="Path 155" d="M32.092.554a.422.422,0,0,0-.136-.338.5.5,0,0,0-.364-.159H.554a.5.5,0,0,0-.5.5v4a.5.5,0,0,0,.5.5H31.591a.5.5,0,0,0,.5-.5Zm-3.508,2.8V1.051h2.308Zm-8.01,0V1.051h2.308Zm-8.01,0V1.051h2.308Zm-8.01,0V1.051H6.863Zm3.011-1.6V4.061H5.258Zm8.01,0V4.061H13.268Zm8.01,0V4.061H21.277Zm4,1.6L25.282,1.051H27.59Zm-8.01,0L17.272,1.051H19.58Zm-8.01,0L9.263,1.051H11.57Zm-8.01,0L1.253,1.051H3.561Zm-2.51-1.1L2.858,4.061H1.051Zm7.509-.5,2.308,2.308H8.56Zm8.01,0,2.308,2.308H16.569Zm8.01,0,2.308,2.308H24.579Zm4.716,2.308,1.8-1.783V4.061Z" transform="translate(0)" fill="#ffec00"/>
    <path id="Path_156" data-name="Path 156" d="M144.554,67.553a.5.5,0,0,1-.5-.5v-2.5a.5.5,0,0,1,.994,0v2.5A.5.5,0,0,1,144.554,67.553Z" transform="translate(-134.989 -59.995)" fill="#ffec00"/>
    <path id="Path_157" data-name="Path 157" d="M8,376h3v8.01H8Z" transform="translate(-7.446 -352.419)" fill="#c4d4de"/>
    <path id="Path_158" data-name="Path 158" d="M200,392h3v4h-3Z" transform="translate(-187.432 -367.417)" fill="#c4d4de"/>
    <path id="Path_159" data-name="Path 159" d="M120,456h2v3h-2Z" transform="translate(-112.438 -427.413)" fill="#c4d4de"/>
    <path id="Path_160" data-name="Path 160" d="M130.556,138.059a.5.5,0,0,0-.5.5.5.5,0,1,1-.5-.5.5.5,0,0,0,.5-.5v-1a.5.5,0,1,0-.994,0v.589a1.5,1.5,0,1,0,2,1.413A.5.5,0,0,0,130.556,138.059Z" transform="translate(-119.99 -127.49)" fill="#ffec00"/>
    <path id="Path_161" data-name="Path 161" d="M297,184h0a1,1,0,0,0-1,1v3h2v-3A1,1,0,0,0,297,184Z" transform="translate(-277.425 -172.433)" fill="#ffec00"/>
    <circle id="Ellipse_18" data-name="Ellipse 18" cx="0.501" cy="0.501" r="0.501" transform="translate(19.076 12.068)" fill="#c9e6fa"/>
    <path id="Path_162" data-name="Path 162" d="M0,0H1V4.6H0Z" transform="translate(12.462 6.165) rotate(-45)" fill="#d6d4d6"/>
    <path id="Path_163" data-name="Path 163" d="M193,82h0a1,1,0,0,0,1-1V80h-2v1A1,1,0,0,0,193,82Z" transform="translate(-179.933 -74.941)" fill="#ffec00"/>
    <circle id="Ellipse_19" data-name="Ellipse 19" cx="0.501" cy="0.501" r="0.501" transform="translate(12.568 5.56)" fill="#c9e6fa"/>
    <path id="Path_164" data-name="Path 164" d="M21.507,106a1.5,1.5,0,0,1-1.5,1.5H17a1,1,0,1,1,0-2,1.5,1.5,0,0,1,1.5-1.5,1.483,1.483,0,0,1,1.151.541,1.635,1.635,0,0,1,.35-.04A1.5,1.5,0,0,1,21.507,106Z" transform="translate(-14.946 -97.439)" fill="#efeeef"/>
    <path id="Path_165" data-name="Path 165" d="M21.507,114.467a1.5,1.5,0,0,1-1.5,1.5H17a1,1,0,0,1-1-1h3a1.5,1.5,0,0,0,1.437-1.938,1.5,1.5,0,0,1,1.066,1.437Z" transform="translate(-14.946 -105.904)" fill="#c4d4de"/>
    <path id="Path_166" data-name="Path 166" d="M444.505,313.5A1.5,1.5,0,0,1,443,315h-2a1,1,0,1,1,0-2,.954.954,0,0,1,.541.16.85.85,0,0,1,.05-.16,1.5,1.5,0,0,1,2.914.5Z" transform="translate(-412.414 -292.423)" fill="#efeeef"/>
    <path id="Path_167" data-name="Path 167" d="M444.505,314.467a1.5,1.5,0,0,1-1.5,1.5h-2a1,1,0,0,1-1-1h2a1.5,1.5,0,0,0,1.437-1.938A1.5,1.5,0,0,1,444.505,314.467Z" transform="translate(-412.414 -293.389)" fill="#c4d4de"/>
    <path id="Path_168" data-name="Path 168" d="M20.578,369.058h-8.01a.5.5,0,0,0-.5.5v3.508H10.062v-4.509a.5.5,0,0,0-.5-.5H.554a.5.5,0,0,0-.5.5v8.01a.5.5,0,0,0,.5.5H20.578a.5.5,0,0,0,.5-.5v-7.008A.5.5,0,0,0,20.578,369.058Zm-19.527-.007H3.06v7.015H1.051Zm12.014,1h2.009v3.011H13.065Zm-6,3.508v2.507H4.054v-7.015H9.067v4.012H7.562a.5.5,0,0,0-.5.5Zm.994.5H9.067v2.009H8.059Zm9.018,2.009H10.062v-2.009h7.015Zm3,0H18.071V373.56a.5.5,0,0,0-.5-.5H16.069v-3.011h4.012Z" transform="translate(0 -344.973)"/>
    <path id="Path_169" data-name="Path 169" d="M31.591,5.056a.5.5,0,0,0,.5-.5v-4a.5.5,0,0,0-.5-.5H.554a.5.5,0,0,0-.5.5v4a.5.5,0,0,0,.5.5H9.067V6.564h-.5a.5.5,0,0,0-.5.5v1a.5.5,0,0,0,.146.351l.856.856v.383a1.5,1.5,0,0,0-.444,2.578l-3.25,2.844H4.058a1.5,1.5,0,0,0-1.391,2.054,1.5,1.5,0,0,0-1,2,1.5,1.5,0,0,0,.39,2.945H14.07a1.492,1.492,0,0,0,1-.385,1.495,1.495,0,0,0,2,0,1.5,1.5,0,1,0,1.391-2.56,1.5,1.5,0,0,0,.017-1.069.5.5,0,0,0,.094.009h4.509v13.52h.994V30.086h2.308L25.232,31.24l.7.7,1.154-1.154v.8h.994V18.071h3.508a.5.5,0,0,0,.5-.5v-2a.5.5,0,0,0-.5-.5h-.5V5.056Zm-2.3-.994,1.807-1.807V4.061Zm.806,11.013h-2.51V13.94a3.98,3.98,0,0,0,1.164-.511A.5.5,0,0,0,29.5,12.8a4.021,4.021,0,0,0,.589-.81Zm-2-2.41a3,3,0,0,1-3.153-.082l1.808-1.507Zm-1.51,1.4h0v1.008H25.58V13.939a3.994,3.994,0,0,0,1,.128Zm2.274-2.037L25.024,7.5a3.005,3.005,0,0,1,3.836,4.533Zm-2.751-1.713-1.9,1.585a3,3,0,0,1,.066-3.755ZM23.622,7.379a3.988,3.988,0,0,0-1.007,2.189H22.58a.5.5,0,0,0,0,.994h.036a3.981,3.981,0,0,0,.827,1.975l-.179.149a.5.5,0,1,0,.636.764l.253-.211a4.015,4.015,0,0,0,.5.33h-.07v1.505H21.075V9.77l2.476-2.476ZM16.573,9.266l2.1,2.1a1.512,1.512,0,0,0-.3.3l-2.1-2.1Zm2.5,3.3a.5.5,0,1,1,1.008,0v2.507H19.072V12.568Zm1.154-3.355a.5.5,0,0,0-.146.351v1.593a1.485,1.485,0,0,0-.282-.071L16.924,8.212a.5.5,0,0,0-.7,0l-.149.149L14.421,6.71l-.006.006a1.489,1.489,0,0,0,.151-.655v-1h9.817Zm8.358-8.162h2.308L28.584,3.359ZM27.59,3.359,25.282,1.051H27.59Zm-6.313.7,2.308-2.308V4.061Zm-8.01,0,2.308-2.308V4.061Zm3.3-2.308,2.308,2.308H16.569Zm4,1.6V1.051h2.308Zm-.994,0L17.272,1.051H19.58Zm-7.015,0V1.051h2.308Zm-.994,0L9.263,1.051h2.308ZM4.555,1.051H6.863L4.555,3.359ZM3.561,3.359,1.253,1.051H3.561Zm4-1.6V4.061H5.258Zm.994,0,2.308,2.308H8.56Zm4,3.3h1.008v1a.5.5,0,1,1-1.008,0Zm12.014-.994V1.754l2.308,2.308ZM1.051,2.254,2.858,4.061H1.051Zm8.01,5.3h1.008v.3l-.5.5-.5-.5Zm.5,3a.5.5,0,0,0,.5-.5v-.8l.856-.856a.5.5,0,0,0,.146-.351v-1a.5.5,0,0,0-.5-.5h-.5V5.056h1.509v1a1.5,1.5,0,0,0,2.154,1.347l-.006.006,1.651,1.651-.149.149a.5.5,0,0,0,0,.7l2.858,2.858v4.691a1.5,1.5,0,0,0-.615-.336,1.5,1.5,0,0,0-1.391-2.054H13.756l-3.25-2.844a1.5,1.5,0,0,0,.557-1.164.5.5,0,0,0-.994,0,.5.5,0,1,1-.5-.5Zm-6.2,10.52.5-1.008h6.9l-.5,1.008Zm1.505-3.011h6.9l-.5,1.008h-6.9Zm7.9-2-.5,1.008h-6.9l.5-1.008Zm1.9,0a1.5,1.5,0,0,0,0,1.008H13.372l.5-1.008h.785Zm-.095,2.507a.5.5,0,1,1,.5.5A.5.5,0,0,1,14.567,18.575Zm-2.2.5.5-1.008h.785a1.5,1.5,0,0,0,0,1.008H12.371Zm3.7-2a.5.5,0,1,1,.5-.5A.5.5,0,0,1,16.072,17.077Zm-4.2,3h.785a1.5,1.5,0,0,0,0,1.008H11.37Zm5.2-.994a.5.5,0,1,1,.5-.5A.5.5,0,0,1,17.074,19.079ZM9.565,12.728l2.682,2.347H6.883ZM4.058,16.069h.7l-.5,1.008H4.058a.5.5,0,0,1,0-1.008Zm-1,2h.7l-.5,1.008H3.057a.5.5,0,0,1,0-1.008ZM1.551,20.578a.5.5,0,0,1,.5-.5h.7l-.5,1.008H2.056A.5.5,0,0,1,1.551,20.578Zm12.519.5a.5.5,0,1,1,.5-.5A.5.5,0,0,1,14.07,21.082Zm2,0a.5.5,0,1,1,.5-.5A.5.5,0,0,1,16.072,21.082Zm2,0a.5.5,0,1,1,.5-.5A.5.5,0,0,1,18.075,21.082Zm6,.994h2.308l-2.308,2.308Zm3.011,6.313-2.308-2.308h2.308Zm0-3.3H24.781l2.308-2.308Zm-3.011-4V18.774l2.308,2.308Zm0,5.7,2.308,2.308H24.078Zm3.011-6.4-2.308-2.308h2.308Zm4-4.31v1.008H19.073V16.069H31.094Zm-1-7.927a4,4,0,0,0-5.716-1.411l-.12-.142L25.79,5.056h4.3Z" transform="translate(0 0)"/>
  </g>
</svg>
