<svg xmlns="http://www.w3.org/2000/svg" xmlns:xlink="http://www.w3.org/1999/xlink" width="40.478" height="30.54" viewBox="0 0 40.478 30.54">
  <defs>
    <linearGradient id="linear-gradient" x1="0.5" y1="10.938" x2="0.5" y2="-12.836" gradientUnits="objectBoundingBox">
      <stop offset="0" stop-color="#e93e3a"/>
      <stop offset="0.35" stop-color="#ed683c"/>
      <stop offset="0.7" stop-color="#f3903f"/>
      <stop offset="1" stop-color="#fdc70c"/>
    </linearGradient>
    <linearGradient id="linear-gradient-2" y1="4.938" y2="-18.836" xlink:href="#linear-gradient"/>
    <linearGradient id="linear-gradient-5" y1="1.064" y2="0.013" xlink:href="#linear-gradient"/>
  </defs>
  <g id="delivery-truck" transform="translate(-2 -9.73)">
    <path id="Path_170" data-name="Path 170" d="M42,36h2.7v1.349H42Z" transform="translate(-13.015 -8.548)" fill="url(#linear-gradient)"/>
    <path id="Path_171" data-name="Path 171" d="M11,48h1.349v1.349H11Z" transform="translate(-2.928 -12.452)" fill="url(#linear-gradient-2)"/>
    <path id="Path_172" data-name="Path 172" d="M25,48h1.349v1.349H25Z" transform="translate(-7.483 -12.452)" fill="url(#linear-gradient-2)"/>
    <path id="Path_173" data-name="Path 173" d="M48,48h1.349v1.349H48Z" transform="translate(-14.967 -12.452)" fill="url(#linear-gradient-2)"/>
    <path id="Path_174" data-name="Path 174" d="M42.012,24.467l-3.281-6.072a2.024,2.024,0,0,0-1.781-1.062H26.961a.675.675,0,0,0-.675.675V31.5H24.937V19.357a2.019,2.019,0,0,0-1.8-2L10.4,10A2.022,2.022,0,0,0,8.07,13.29v5.392H4.7a.675.675,0,0,0-.675.675v8.1a.675.675,0,0,0,.675.675h8.1a.675.675,0,0,0,.675-.675v-8.1a.675.675,0,0,0-.675-.675H9.421V14.113L20.89,20.734v7.393a.675.675,0,0,0-.477.2l-1.152,1.152H2.675A.675.675,0,0,0,2,30.151v5.4A1.349,1.349,0,0,0,3.349,36.9h1.41a4.043,4.043,0,0,0,7.974,0H14.2a4.043,4.043,0,0,0,7.974,0h7.542a4.043,4.043,0,0,0,7.974,0h2.759a2.024,2.024,0,0,0,2.024-2.024v-8.7a3.346,3.346,0,0,0-.465-1.71ZM8.072,20.032H9.421v2.7H8.072Zm-1.349,0v1.349H5.373V20.032ZM5.373,26.778V22.73H6.722V23.4a.675.675,0,0,0,.675.675h2.7a.675.675,0,0,0,.675-.675V22.73h1.349v4.048Zm6.746-5.4H10.77V20.032h1.349Zm25.425-2.344,3.09,5.718h-10.3V18.682h6.616a.675.675,0,0,1,.594.354ZM26.287,32.849v2.7H24.937v-2.7ZM8.8,11.418a.675.675,0,0,1,.921-.247L21.461,17.95a2.013,2.013,0,0,0-.557,1.236L9.048,12.341a.675.675,0,0,1-.246-.923Zm13.437,7.939a.675.675,0,1,1,1.349,0v8.77H22.239ZM8.746,38.921a2.7,2.7,0,1,1,2.7-2.7A2.7,2.7,0,0,1,8.746,38.921Zm9.445,0a2.7,2.7,0,1,1,2.7-2.7A2.7,2.7,0,0,1,18.191,38.921Zm0-6.746A4.052,4.052,0,0,0,14.2,35.548H12.733a4.043,4.043,0,0,0-7.974,0H3.349V30.826H19.54a.675.675,0,0,0,.477-.2l1.152-1.152h2.419v6.072h-1.41A4.052,4.052,0,0,0,18.191,32.175Zm15.517,6.746a2.7,2.7,0,1,1,2.7-2.7A2.7,2.7,0,0,1,33.708,38.921Zm6.746-3.373H37.695a4.043,4.043,0,0,0-7.974,0H27.636V18.682h1.349v6.746a.675.675,0,0,0,.675.675H41.118c0,.024.01.048.01.073v1.276h-2.7A1.349,1.349,0,0,0,37.081,28.8v1.349A1.349,1.349,0,0,0,38.43,31.5h2.7v1.349H39.1V34.2h2.024v.675A.675.675,0,0,1,40.454,35.548Zm.675-6.746v1.349h-2.7V28.8Z" fill="url(#linear-gradient-5)"/>
  </g>
</svg>
