<svg xmlns="http://www.w3.org/2000/svg" width="28.729" height="28.744" viewBox="0 0 28.729 28.744">
  <g id="electrician" transform="translate(-0.128 0)">
    <path id="Path_238" data-name="Path 238" d="M118.554,319.222v1.142a.945.945,0,0,1-.582.873l-3.773,1.572a2.316,2.316,0,0,0-1.316,2.1v4.551h16.069v-4.551a2.316,2.316,0,0,0-1.316-2.1l-3.773-1.572a.945.945,0,0,1-.582-.873v-1.142Z" transform="translate(-106.424 -301.301)" fill="#febba0"/>
    <g id="Group_11" data-name="Group 11" transform="translate(6.458 19.248)">
      <path id="Path_239" data-name="Path 239" d="M127.635,345.127l-3.773-1.572a.945.945,0,0,1-.561-.68,2.814,2.814,0,0,1-4.765-.007.945.945,0,0,1-.563.687l-3.773,1.572a2.316,2.316,0,0,0-1.316,2.1v4.551h16.069v-4.551A2.316,2.316,0,0,0,127.635,345.127Z" transform="translate(-112.882 -342.867)" fill="#ffa036"/>
      <path id="Path_240" data-name="Path 240" d="M202.571,342.868a.945.945,0,0,1-.563.687l-.091.038,1.094,3.065,1.945-2.47A2.812,2.812,0,0,1,202.571,342.868Z" transform="translate(-196.919 -342.868)" fill="#ffa036"/>
      <path id="Path_241" data-name="Path 241" d="M258.439,342.868a.945.945,0,0,0,.563.687l.091.038L258,346.659l-1.945-2.47A2.812,2.812,0,0,0,258.439,342.868Z" transform="translate(-248.016 -342.868)" fill="#ffa036"/>
    </g>
    <path id="Path_242" data-name="Path 242" d="M150.479,82.05V80.341a5.267,5.267,0,0,0-10.533,0h-.021V82.05a1.313,1.313,0,0,0,0,2.627v.98A2.576,2.576,0,0,0,141,87.623l3.175,1.815a1.822,1.822,0,0,0,2.05,0l3.165-1.815a2.585,2.585,0,0,0,1.086-1.966v-.98a1.313,1.313,0,1,0,0-2.627Z" transform="translate(-130.709 -70.861)" fill="#febba0"/>
    <g id="Group_12" data-name="Group 12" transform="translate(0.717 1.338)">
      <path id="Path_243" data-name="Path 243" d="M150.365,30.553H150a6.169,6.169,0,0,0-4.761-5.609v-.866a.223.223,0,0,0-.209-.235h-2.255a.223.223,0,0,0-.209.235v.841a6.169,6.169,0,0,0-4.872,5.634h-.25a.209.209,0,0,0-.209.209v1.169a.209.209,0,0,0,.209.209h12.917a.209.209,0,0,0,.209-.209V30.761A.209.209,0,0,0,150.365,30.553Z" transform="translate(-130.131 -23.843)" fill="#ffa036"/>
      <path id="Path_244" data-name="Path 244" d="M13.767,270.609a3.144,3.144,0,0,0-3.144,3.144,3.219,3.219,0,0,0,1.649,2.785h3a3.23,3.23,0,0,0,1.636-2.785A3.144,3.144,0,0,0,13.767,270.609Z" transform="translate(-10.623 -256.756)" fill="#ffa036"/>
    </g>
    <path id="Path_245" data-name="Path 245" d="M42.808,376.213v.918a1.5,1.5,0,0,1-1.508,1.5h0a1.505,1.505,0,0,1-1.508-1.5v-.918Z" transform="translate(-37.438 -355.093)" fill="#3f5968"/>
    <path id="Path_246" data-name="Path 246" d="M27.5,15.335l-.8,3.524c-.047.205.017.234.14.064l3.272-4.5c.124-.17.053-.31-.158-.31H28.233l.477-3.5c.028-.209-.039-.233-.15-.054l-2.767,4.45c-.111.179-.03.325.181.325Z" transform="translate(-24.177 -9.855)" fill="#ff504e"/>
    <path id="Path_247" data-name="Path 247" d="M435.994,55.608h-1.231l-.645,2.213,1.261,1.2,1.261-1.2Z" transform="translate(-409.626 -52.487)" fill="#ecebed"/>
    <path id="Path_248" data-name="Path 248" d="M436.083,200.83v5.28a1.3,1.3,0,0,1-1.3,1.3h0a1.3,1.3,0,0,1-1.3-1.3v-5.28Z" transform="translate(-409.035 -189.556)" fill="#314967"/>
    <path id="Path_249" data-name="Path 249" d="M.722,492.286H.714a.586.586,0,1,1,0-1.173H.722a.586.586,0,1,1,0,1.173Z" transform="translate(0 -463.542)"/>
    <path id="Path_250" data-name="Path 250" d="M491.442,492.286h-.008a.586.586,0,1,1,0-1.173h.008a.586.586,0,1,1,0,1.173Z" transform="translate(-463.171 -463.542)"/>
    <path id="Path_251" data-name="Path 251" d="M236.554,263.218a1.161,1.161,0,0,1-1.159-1.159.586.586,0,0,1,.586-.586h1.146a.586.586,0,0,1,.586.586A1.161,1.161,0,0,1,236.554,263.218Z" transform="translate(-222.059 -246.793)"/>
    <path id="Path_252" data-name="Path 252" d="M286.577,447.377h-.008a.586.586,0,0,1,0-1.173h.008a.586.586,0,1,1,0,1.173Z" transform="translate(-269.807 -421.155)"/>
    <path id="Path_253" data-name="Path 253" d="M322.692,447.377h-2.2a.586.586,0,0,1,0-1.173h2.2a.586.586,0,0,1,0,1.173Z" transform="translate(-301.826 -421.155)"/>
    <path id="Path_254" data-name="Path 254" d="M205.334,447.377h-.008a.586.586,0,1,1,0-1.173h.008a.586.586,0,1,1,0,1.173Z" transform="translate(-193.125 -421.155)"/>
    <path id="Path_255" data-name="Path 255" d="M134.555,447.377h-2.2a.586.586,0,1,1,0-1.173h2.2a.586.586,0,1,1,0,1.173Z" transform="translate(-124.251 -421.155)"/>
    <path id="Path_256" data-name="Path 256" d="M56.823,219.975a.586.586,0,0,1-.586-.586V218.6a.586.586,0,1,1,1.173,0v.792A.586.586,0,0,1,56.823,219.975Z" transform="translate(-52.959 -205.771)"/>
    <path id="Path_257" data-name="Path 257" d="M3.649,240.546a.584.584,0,0,1-.414-.172l-.56-.56a.586.586,0,1,1,.829-.829l.56.56a.586.586,0,0,1-.415,1Z" transform="translate(-2.241 -225.407)"/>
    <path id="Path_258" data-name="Path 258" d="M101.339,239.791a.586.586,0,0,1-.415-1l.56-.56a.586.586,0,1,1,.829.829l-.56.56A.584.584,0,0,1,101.339,239.791Z" transform="translate(-94.976 -224.694)"/>
    <path id="Path_259" data-name="Path 259" d="M7.641,263.894a3.731,3.731,0,0,0-7.462,0A3.83,3.83,0,0,0,1.817,267v.6A2.094,2.094,0,0,0,6,267.6V267A3.84,3.84,0,0,0,7.641,263.894Zm-3.729,1.1-.317-.861.289-.234.34.248Zm0,3.523a.92.92,0,0,1-.921-.916v-.332H4.832v.332A.92.92,0,0,1,3.91,268.513Zm1.346-2.421h-.5l1.11-3.012a.586.586,0,0,0-1.1-.406l-.12.325-.435-.317a.587.587,0,0,0-.714.018l-.33.267-.108-.292a.586.586,0,0,0-1.1.406l1.11,3.011H2.574a2.639,2.639,0,0,1-1.222-2.2,2.558,2.558,0,0,1,5.116,0A2.647,2.647,0,0,1,5.257,266.093Z" transform="translate(-0.048 -245.559)"/>
    <path id="Path_260" data-name="Path 260" d="M16.871,9.765a.63.63,0,0,1-.255-.054.67.67,0,0,1-.336-.836l.637-2.808h-.792a.775.775,0,0,1-.679-1.221L18.214.4a.672.672,0,0,1,.824-.36.672.672,0,0,1,.405.8L19.057,3.67h1.05a.756.756,0,0,1,.632,1.24l-3.273,4.5A.731.731,0,0,1,16.871,9.765ZM16.8,4.894h.854a.586.586,0,0,1,.572.716L17.97,6.726l1.369-1.883h-.954a.586.586,0,0,1-.581-.666l.158-1.156Z" transform="translate(-14.329 0)"/>
    <path id="Path_261" data-name="Path 261" d="M283.069,213.576a.655.655,0,1,0-.655-.655A.656.656,0,0,0,283.069,213.576Z" transform="translate(-266.438 -200.349)"/>
    <path id="Path_262" data-name="Path 262" d="M206.894,212.265a.655.655,0,1,0,.655.655A.656.656,0,0,0,206.894,212.265Z" transform="translate(-194.54 -200.349)"/>
    <path id="Path_263" data-name="Path 263" d="M58.385,40.217H55.132V36.253a2.889,2.889,0,0,0-1.677-2.64l-3.773-1.572a.358.358,0,0,1-.221-.331V30.8l1.533-.879.031-.019a3.166,3.166,0,0,0,1.348-2.411c0-.015,0-.03,0-.045v-.487a1.9,1.9,0,0,0,0-3.614v-.475h.6a.8.8,0,0,0,.8-.8V20.9a.8.8,0,0,0-.626-.777,6.76,6.76,0,0,0-4.7-5.49v-.416a.809.809,0,0,0-.8-.821H45.384a.809.809,0,0,0-.8.821V14.6a6.759,6.759,0,0,0-4.821,5.558.8.8,0,0,0-.51.742v1.169a.8.8,0,0,0,.8.8h.6v.475a1.9,1.9,0,0,0,0,3.614v.487c0,.015,0,.03,0,.045A3.163,3.163,0,0,0,41.988,29.9l.032.02,1.541.881v.91a.358.358,0,0,1-.221.331l-3.773,1.572a2.889,2.889,0,0,0-1.677,2.64v3.964H34.637a.586.586,0,0,0,0,1.173H58.385a.586.586,0,1,0,0-1.173ZM40.43,21.266a.586.586,0,0,0,.458-.535,5.583,5.583,0,0,1,4.408-5.1.586.586,0,0,0,.465-.574v-.49h1.5v.514a.586.586,0,0,0,.455.571,5.583,5.583,0,0,1,4.307,5.075.586.586,0,0,0,.569.549v.414H40.43Zm2.19,7.644a1.987,1.987,0,0,1-.8-1.491v-.957a.586.586,0,0,0-.586-.586.727.727,0,0,1,0-1.454.586.586,0,0,0,.586-.586v-.968H51.2v.968a.586.586,0,0,0,.586.586.727.727,0,0,1,0,1.454.586.586,0,0,0-.586.586v.957a2.018,2.018,0,0,1-.809,1.491l-3.148,1.8-.031.019a1.24,1.24,0,0,1-1.4,0l-.032-.02Zm3.308,11.307H39.063V36.253a1.738,1.738,0,0,1,.956-1.557l3.112-1.3.887,2.484a.586.586,0,0,0,1.013.166l.9-1.14v5.309h0Zm-1.735-7.33a3.369,3.369,0,0,0,1.248.742l-.677.859Zm.54-1.15c0-.01,0-.019,0-.029v-.24l.446.255a2.411,2.411,0,0,0,2.663,0l.445-.255v.241c0,.012,0,.024,0,.036a2.225,2.225,0,0,1-3.556-.007Zm4.1,1.149-.572,1.6-.677-.86A3.371,3.371,0,0,0,48.835,32.887Zm5.124,7.33H47.1V34.908l.9,1.14a.586.586,0,0,0,1.013-.166L49.9,33.4,53,34.7a1.738,1.738,0,0,1,.956,1.557Z" transform="translate(-32.019 -12.646)"/>
    <path id="Path_264" data-name="Path 264" d="M236.047,73.072h-.094l.258-.319a.586.586,0,1,0-.911-.738l-1.033,1.274a.586.586,0,0,0,.455.956h.048l-.382.445a.586.586,0,1,0,.89.764l1.214-1.413a.586.586,0,0,0-.445-.968Z" transform="translate(-220.871 -67.767)"/>
    <path id="Path_265" data-name="Path 265" d="M426.225,53.317h-.709v-3.9l1.079-1.029a.586.586,0,0,0,.158-.588l-.645-2.213a.586.586,0,0,0-.563-.422h-1.231a.586.586,0,0,0-.563.422l-.645,2.213a.586.586,0,0,0,.158.588l1.079,1.029v3.9h-.709a.586.586,0,0,0-.586.586v5.28a1.882,1.882,0,0,0,3.764,0V53.9A.586.586,0,0,0,426.225,53.317Zm-1.471-6.98h.352l.422,1.449-.6.57-.6-.57Zm.885,12.846a.709.709,0,0,1-1.419,0V54.489h1.418v4.694Z" transform="translate(-399.176 -42.629)"/>
  </g>
</svg>
