<svg xmlns="http://www.w3.org/2000/svg" width="34" height="34" viewBox="0 0 34 34">
  <g id="man" transform="translate(0.142 0.15)">
    <circle id="Ellipse_2" data-name="Ellipse 2" cx="17" cy="17" r="17" transform="translate(-0.142 -0.15)" fill="#fd8469"/>
    <g id="Group_2" data-name="Group 2" transform="translate(3.754 22.359)">
      <path id="Path_23" data-name="Path 23" d="M252.959,362.8c-.027,0-.053.027-.08.027s-.053-.027-.08-.027Z" transform="translate(-239.775 -361.072)" fill="#84dbff"/>
      <path id="Path_24" data-name="Path 24" d="M83.009,341.93a16.869,16.869,0,0,1-26.209,0,14.952,14.952,0,0,1,8.346-5.13,9.275,9.275,0,0,0,.718,4.04c.93-2.126,4.04-2.313,4.04-2.313s3.11.186,4.014,2.313a8.872,8.872,0,0,0,.718-4.04A14.841,14.841,0,0,1,83.009,341.93Z" transform="translate(-56.8 -336.8)" fill="#84dbff"/>
    </g>
    <path id="Path_25" data-name="Path 25" d="M204.4,297.437v.027c0,.266-.133,1.967-3.721,3.323h-.159c-3.588-1.356-3.721-3.057-3.721-3.323v-.027a4.667,4.667,0,0,1,.159-1.037,4.132,4.132,0,0,0,7.283,0A4.667,4.667,0,0,1,204.4,297.437Z" transform="translate(-183.743 -276.725)" fill="#fff"/>
    <g id="Group_3" data-name="Group 3" transform="translate(12.076 20.711)">
      <path id="Path_26" data-name="Path 26" d="M257.8,312s.186,1.914-3.8,3.4c0,0,3.11.186,4.014,2.313C258.067,317.768,259.848,313.143,257.8,312Z" transform="translate(-249.217 -312)" fill="#54c0eb"/>
      <path id="Path_27" data-name="Path 27" d="M183.011,312c-2.047,1.143-.266,5.768-.213,5.688.93-2.126,4.014-2.313,4.014-2.313C182.825,313.914,183.011,312,183.011,312Z" transform="translate(-182.03 -312)" fill="#54c0eb"/>
    </g>
    <g id="Group_4" data-name="Group 4" transform="translate(9.831 7.162)">
      <path id="Path_28" data-name="Path 28" d="M183.4,114.934a7.566,7.566,0,0,1-2.153,4.359,5.143,5.143,0,0,1-.718.611l-.425-1.356h-4.572l-.425,1.356c-.851-.638-2.632-2.419-2.658-4.093-.744-9.543,6.566-7.522,6.566-7.522C183.936,107.943,183.776,112.276,183.4,114.934Z" transform="translate(-170.794 -108.11)" fill="#fff"/>
      <path id="Path_29" data-name="Path 29" d="M333.756,200.952a2.719,2.719,0,0,1-1.356,1.2,11.274,11.274,0,0,0,.478-1.329v-.027l.319-1.2h-.027c.106-.4.213-.8.292-1.2a.756.756,0,0,1,.319.106C334.367,198.878,334.34,199.968,333.756,200.952Z" transform="translate(-320.163 -192.4)" fill="#fff"/>
      <path id="Path_30" data-name="Path 30" d="M150.067,203.268a2.719,2.719,0,0,1-1.356-1.2c-.611-.983-.611-2.073-.027-2.419.053-.027.08-.053.133-.053a18.1,18.1,0,0,0,.771,2.366A12.872,12.872,0,0,0,150.067,203.268Z" transform="translate(-148.249 -193.52)" fill="#fff"/>
    </g>
    <path id="SVGCleanerId_0" d="M154.581,38.656c.213-2.445-3.668-2.286-3.668-2.286A7.518,7.518,0,0,0,144.4,42.7l.8-.957c-1.249,2.738.638,7.443.8,7.815.984,3.269,3.163,6.273,5.688,6.273s4.7-3,5.688-6.273h0v-.027c.106-.4.213-.8.292-1.2h-.027c.532-2.126,1.116-4.28,1.116-4.28C160.269,36.423,154.581,38.656,154.581,38.656Zm2.685,9.3a7.566,7.566,0,0,1-2.153,4.359,7.324,7.324,0,0,1-.718.611l-.425-1.329H149.4l-.425,1.356a8.351,8.351,0,0,1-2.153-2.525,5.644,5.644,0,0,1-.505-1.568c-.744-9.543,6.566-7.522,6.566-7.522C157.8,40.969,157.637,45.3,157.265,47.96Z" transform="translate(-134.825 -33.973)" fill="#324a5e"/>
    <g id="Group_5" data-name="Group 5" transform="translate(9.575 2.395)">
      <path id="SVGCleanerId_0_1_" d="M154.581,38.656c.213-2.445-3.668-2.286-3.668-2.286A7.518,7.518,0,0,0,144.4,42.7l.8-.957c-1.249,2.738.638,7.443.8,7.815.984,3.269,3.163,6.273,5.688,6.273s4.7-3,5.688-6.273h0v-.027c.106-.4.213-.8.292-1.2h-.027c.532-2.126,1.116-4.28,1.116-4.28C160.269,36.423,154.581,38.656,154.581,38.656Zm2.685,9.3a7.566,7.566,0,0,1-2.153,4.359,7.324,7.324,0,0,1-.718.611l-.425-1.329H149.4l-.425,1.356a8.351,8.351,0,0,1-2.153-2.525,5.644,5.644,0,0,1-.505-1.568c-.744-9.543,6.566-7.522,6.566-7.522C157.8,40.969,157.637,45.3,157.265,47.96Z" transform="translate(-144.4 -36.368)" fill="#324a5e"/>
    </g>
    <path id="Path_31" data-name="Path 31" d="M154.581,38.656c.213-2.445-3.668-2.286-3.668-2.286A7.518,7.518,0,0,0,144.4,42.7l.8-.957c-1.249,2.738.638,7.443.8,7.815.984,3.269,3.163,6.273,5.688,6.273s4.7-3,5.688-6.273h0v-.027c.106-.4.213-.8.292-1.2h-.027c.532-2.126,1.116-4.28,1.116-4.28C160.269,36.423,154.581,38.656,154.581,38.656Zm2.685,9.3a7.566,7.566,0,0,1-2.153,4.359,7.324,7.324,0,0,1-.718.611l-.425-1.329H149.4l-.425,1.356c-.851-.638-2.632-2.419-2.658-4.093-.744-9.543,6.566-7.522,6.566-7.522C157.8,40.969,157.637,45.3,157.265,47.96Z" transform="translate(-134.825 -33.973)" fill="#324a5e"/>
    <path id="Path_32" data-name="Path 32" d="M226,279.2a2.51,2.51,0,0,0,1.861.851,2.419,2.419,0,0,0,1.861-.851Z" transform="translate(-211.002 -260.668)" fill="#fff"/>
  </g>
</svg>
