<svg xmlns="http://www.w3.org/2000/svg" width="31.519" height="34.93" viewBox="0 0 31.519 34.93">
  <g id="man" transform="translate(-0.5 0)">
    <path id="Path_209" data-name="Path 209" d="M198.411,254.547V252.5h-2.047L195,253.523l1.364,1.023Zm0,0" transform="translate(-181.231 -235.274)" fill="#cb9851"/>
    <path id="Path_210" data-name="Path 210" d="M22.122,254.547H9.023L8,253.523,9.023,252.5h13.1Zm0,0" transform="translate(-6.988 -235.274)" fill="#e5ac52"/>
    <path id="Path_211" data-name="Path 211" d="M132.411,312.5,129,319.049l3.411,6.549h2.047V312.5Zm0,0" transform="translate(-119.733 -291.181)" fill="#762916"/>
    <path id="Path_212" data-name="Path 212" d="M59,312.5h8.187v13.1H59Zm0,0" transform="translate(-54.509 -291.181)" fill="#893a31"/>
    <path id="Path_213" data-name="Path 213" d="M322.047,439.5v3.411l-2.047.682V439.5Zm0,0" transform="translate(-297.703 -409.516)" fill="#f0651f"/>
    <path id="Path_214" data-name="Path 214" d="M412.047,439.5v4.093L410,442.911V439.5Zm0,0" transform="translate(-381.563 -409.516)" fill="#da521b"/>
    <path id="Path_215" data-name="Path 215" d="M365,322.5l2.047,3.07h2.047v-2.047Zm0,0" transform="translate(-339.633 -300.498)" fill="#f9d4a0"/>
    <path id="Path_216" data-name="Path 216" d="M335,323.523v2.047h4.093V322.5Zm0,0" transform="translate(-311.68 -300.498)" fill="#ffebcf"/>
    <path id="Path_217" data-name="Path 217" d="M365,247.5l2.047,6.14h2.047v-4.093Zm0,0" transform="translate(-339.633 -230.615)" fill="#da521b"/>
    <path id="Path_218" data-name="Path 218" d="M335,249.547v4.093h4.093V247.5Zm0,0" transform="translate(-311.68 -230.615)" fill="#f0651f"/>
    <path id="Path_219" data-name="Path 219" d="M392.047,172.5H390l.341,7.163h2.047a2.615,2.615,0,0,0,1.023-1.744v-4.054A1.364,1.364,0,0,0,392.047,172.5Zm0,0" transform="translate(-362.928 -160.732)" fill="#f69b65"/>
    <path id="Path_220" data-name="Path 220" d="M326.14,173.864v4.054a2.615,2.615,0,0,1-1.023,1.744h-4.093A2.614,2.614,0,0,1,320,177.919v-4.054a1.364,1.364,0,0,1,1.364-1.364h3.411A1.364,1.364,0,0,1,326.14,173.864Zm0,0" transform="translate(-297.703 -160.732)" fill="#f9b589"/>
    <path id="Path_221" data-name="Path 221" d="M343.546,195.512a.512.512,0,1,1-.512-.512A.512.512,0,0,1,343.546,195.512Zm0,0" transform="translate(-318.69 -181.697)" fill="#f69b65"/>
    <path id="Path_222" data-name="Path 222" d="M403.523,195.512a.512.512,0,1,1-.512-.512A.512.512,0,0,1,403.523,195.512Zm0,0" transform="translate(-374.575 -181.697)" fill="#f38042"/>
    <path id="Path_223" data-name="Path 223" d="M340.551,9.542A1.191,1.191,0,0,0,339.1,8.089a1.192,1.192,0,0,0-2.056,0,1.191,1.191,0,0,0-1.453,1.453A1.192,1.192,0,0,0,335,10.57v3.07h6.14V10.57A1.193,1.193,0,0,0,340.551,9.542Zm0,0" transform="translate(-311.68 -6.988)" fill="#893a31"/>
    <path id="Path_224" data-name="Path 224" d="M380,52.5v6.89l3.07-3.138V55.57A3.07,3.07,0,0,0,380,52.5Zm0,0" transform="translate(-353.61 -48.918)" fill="#f69b65"/>
    <path id="Path_225" data-name="Path 225" d="M338.07,52.5A3.07,3.07,0,0,0,335,55.57v.682l4.093,3.138V55.57C339.093,53.875,338.635,52.5,338.07,52.5Zm0,0" transform="translate(-311.68 -48.918)" fill="#f9b589"/>
    <path id="Path_226" data-name="Path 226" d="M381.276,103.529a1.531,1.531,0,0,0-.253-.291L380,107.963a3.07,3.07,0,0,0,3.07-3.07v-1.364Zm0,0" transform="translate(-353.61 -96.195)" fill="#762916"/>
    <path id="Path_227" data-name="Path 227" d="M339.093,99.547V97.891a1.534,1.534,0,0,0-2.3.291H335v1.364a3.07,3.07,0,0,0,3.07,3.07C338.635,102.617,339.093,101.242,339.093,99.547Zm0,0" transform="translate(-311.68 -90.848)" fill="#893a31"/>
    <path id="Path_228" data-name="Path 228" d="M261.023,42.5,260,43.864l1.023,1.364h2.047V42.5Zm0,0" transform="translate(-241.796 -39.6)" fill="#4a333a"/>
    <path id="Path_229" data-name="Path 229" d="M215,42.5h4.093v2.729H215Zm0,0" transform="translate(-199.866 -39.6)" fill="#624950"/>
    <g id="Group_10" data-name="Group 10" transform="translate(6.026 20.808)">
      <path id="Path_230" data-name="Path 230" d="M82.012,311.791a.512.512,0,0,1-.512-.512v-5.767a.512.512,0,0,1,1.023,0v5.767A.512.512,0,0,1,82.012,311.791Zm0,0" transform="translate(-81.5 -305)" fill="#54231d"/>
      <path id="Path_231" data-name="Path 231" d="M112.012,310.868a.512.512,0,0,1-.512-.512v-4.844a.512.512,0,0,1,1.023,0v4.844A.512.512,0,0,1,112.012,310.868Zm0,0" transform="translate(-109.453 -305)" fill="#54231d"/>
      <path id="Path_232" data-name="Path 232" d="M88.152,411.833a.511.511,0,0,1-.512-.512v-3.24a2.558,2.558,0,1,0-5.117,0v3.24a.512.512,0,0,1-1.023,0v-3.24a3.582,3.582,0,1,1,7.163,0v3.24A.511.511,0,0,1,88.152,411.833Zm0,0" transform="translate(-81.5 -397.712)" fill="#54231d"/>
      <path id="Path_233" data-name="Path 233" d="M114.058,439.787a.511.511,0,0,1-.512-.512v-3.24a.512.512,0,0,0-1.023,0v3.24a.512.512,0,0,1-1.023,0v-3.24a1.535,1.535,0,1,1,3.07,0v3.24A.511.511,0,0,1,114.058,439.787Zm0,0" transform="translate(-109.453 -425.665)" fill="#54231d"/>
      <path id="Path_234" data-name="Path 234" d="M143.035,311.123a1.537,1.537,0,0,1-1.535-1.535v-4.076a.512.512,0,0,1,1.023,0v4.076a.512.512,0,1,0,1.023,0v-4.076a.512.512,0,0,1,1.023,0v4.076A1.537,1.537,0,0,1,143.035,311.123Zm0,0" transform="translate(-137.407 -305)" fill="#54231d"/>
    </g>
    <path id="Path_235" data-name="Path 235" d="M20.25,232.047H17.692v-1.535a.512.512,0,0,0-1.023,0v.512H2.035a.512.512,0,0,0-.362.15L.65,232.2a.512.512,0,0,0,0,.724l1.023,1.023a.512.512,0,0,0,.362.15H16.669v.512a.512.512,0,0,0,1.023,0V233.07H20.25a.512.512,0,1,0,0-1.023Zm-3.582,1.023H2.247l-.512-.512.512-.512H16.669Zm0,0" transform="translate(0 -214.309)"/>
    <path id="Path_236" data-name="Path 236" d="M53.609,309.912a.512.512,0,0,0,0-1.023h-.171v-3.377a.511.511,0,0,0-.512-.512H42.694a.511.511,0,0,0-.512.512v10.54h-.171a.512.512,0,1,0,0,1.023h.171v1.535a.511.511,0,0,0,.512.512H52.927a.511.511,0,0,0,.512-.512v-6.651h.171a.512.512,0,1,0,0-1.023h-.171v-1.023ZM52.416,318.1h-9.21V306.023h9.21Zm0,0" transform="translate(-38.203 -284.192)"/>
    <path id="Path_237" data-name="Path 237" d="M224.547,33.933l-.673-.224V29.984a.511.511,0,0,0-.512-.512h-1.535V25.583h.512a.511.511,0,0,0,.512-.512v-5.9a3.147,3.147,0,0,0,1.019-1.918.479.479,0,0,0,0-.067V13.133A1.878,1.878,0,0,0,222,11.257h-.226A3.571,3.571,0,0,0,222.85,8.7V3.582a1.712,1.712,0,0,0-.553-1.255A1.7,1.7,0,0,0,220.523.553a1.7,1.7,0,0,0-2.509,0,1.7,1.7,0,0,0-1.775,1.775,1.712,1.712,0,0,0-.552,1.255V8.7a3.571,3.571,0,0,0,1.078,2.558h-.226a1.879,1.879,0,0,0-1.8,1.364h-3.141V6.14h2.558a.512.512,0,0,0,.512-.512V2.9a.512.512,0,0,0-.512-.512h-6.14a.511.511,0,0,0-.512.512V5.628a.512.512,0,0,0,.512.512h2.558v4.434h-.512a1.535,1.535,0,1,0,0,3.07h4.6v3.543a.521.521,0,0,0,0,.067,3.147,3.147,0,0,0,1.019,1.918v5.9a.511.511,0,0,0,.512.512h.512v3.889h-1.535a.511.511,0,0,0-.512.512v3.724l-.673.224a.512.512,0,1,0,.324.971l1.013-.338,2.057-.685a.512.512,0,0,0,.35-.486V25.583h3.07v7.811a.511.511,0,0,0,.35.486l2.055.685,1.015.338a.512.512,0,0,0,.324-.971ZM210.57,12.621h-.512a.512.512,0,0,1,0-1.023h.512Zm-2.047-7.5V3.411h5.117V5.117Zm8.187,27.909-1.023.341V30.5h1.023Zm5.117-10.513H216.71v-3.07h5.117ZM216.71,3.582a.677.677,0,0,1,.337-.587.512.512,0,0,0,.235-.568.68.68,0,0,1,.83-.83.512.512,0,0,0,.568-.235.68.68,0,0,1,1.174,0,.511.511,0,0,0,.568.235.68.68,0,0,1,.83.83.512.512,0,0,0,.235.568.677.677,0,0,1,.337.587v.567a3.574,3.574,0,0,0-5.117,0V3.582Zm0,3.07a2.558,2.558,0,0,1,5.117,0v.171h-1.033a2.047,2.047,0,0,0-3.051,0H216.71Zm0,2.047V7.846h1.282a.512.512,0,0,0,.425-.227,1.023,1.023,0,0,1,1.7,0,.512.512,0,0,0,.425.227h1.282V8.7a2.558,2.558,0,0,1-5.117,0Zm-.329,9.722a2.116,2.116,0,0,1-.694-1.269V13.133a.854.854,0,0,1,.853-.853H222a.854.854,0,0,1,.853.853v4.018a2.118,2.118,0,0,1-.694,1.269Zm.329,6.14V23.537h5.117V24.56Zm6.14,8.807-1.023-.341V30.5h1.023Zm0,0" transform="translate(-192.878 0)"/>
  </g>
</svg>
