<svg xmlns="http://www.w3.org/2000/svg" width="34.379" height="34.325" viewBox="0 0 34.379 34.325">
  <g id="paint-brush" transform="translate(0 -0.393)">
    <path id="Path_121" data-name="Path 121" d="M19.791,176.341a.708.708,0,0,1-.968-.027,6.116,6.116,0,0,0-8.578-.4c-1.264,1.291-1.963,3.361-2.877,4.625a15.47,15.47,0,0,1-1.775,2.07,3.179,3.179,0,0,1-2.286.914,3.309,3.309,0,0,1-2.393-5.593l.027-.027.027-.027a16.535,16.535,0,0,1,1.99-1.721c1.264-.914,3.307-1.613,4.571-2.9a6.29,6.29,0,0,0-.376-8.659.644.644,0,0,1-.188-.511.737.737,0,0,1,.215-.484l3.469-3.5,12.584,12.719Z" transform="translate(0 -148.802)" fill="#415661"/>
    <path id="Path_122" data-name="Path 122" d="M7.573,163.594a.9.9,0,0,0-.215.484.71.71,0,0,0,.188.511,6.263,6.263,0,0,1,.376,8.659c-1.264,1.291-3.334,1.99-4.571,2.9a16.545,16.545,0,0,0-1.99,1.721l-.027.027-.027.027a3.444,3.444,0,0,0-.914,2.286,3.362,3.362,0,0,0,.968,2.339l15.7-15.677-5.217-5.97-.807-.807Z" transform="translate(-0.366 -148.801)" fill="#3a4d57"/>
    <path id="Path_123" data-name="Path 123" d="M206.223,1.07l11.509,11.482a.941.941,0,0,1,0,1.344l-7.448,7.449a.941.941,0,0,1-1.344,0L197.4,9.863a.941.941,0,0,1,0-1.344l7.475-7.449A.941.941,0,0,1,206.223,1.07Z" transform="translate(-183.662 -0.367)" fill="#f4f0d3"/>
    <path id="Path_124" data-name="Path 124" d="M137.351,115.2l13.472,12.181-4.921,4.652-13.176-12.154Z" transform="translate(-123.664 -106.968)" fill="#d3d5d6"/>
    <path id="Path_125" data-name="Path 125" d="M137.351,115.2l6.8,6.131-4.76,4.706-6.669-6.131Z" transform="translate(-123.664 -106.968)" fill="#c8cacb"/>
    <path id="Path_126" data-name="Path 126" d="M273.651,255.22a1.084,1.084,0,1,0,1.533,0A1.122,1.122,0,0,0,273.651,255.22Zm3.98,2.42a1.084,1.084,0,1,0,0,1.533A1.122,1.122,0,0,0,277.631,257.64Z" transform="translate(-254.667 -237.146)" fill="#bdbfc0"/>
    <path id="Path_127" data-name="Path 127" d="M261.623,24.519a.471.471,0,0,0-.672,0L255.143,30.3a.475.475,0,0,0,.672.672l5.808-5.781A.471.471,0,0,0,261.623,24.519Zm-1.613-1.613a.471.471,0,0,0-.672,0l-5.808,5.781a.475.475,0,0,0,.672.672l5.808-5.781A.471.471,0,0,0,260.01,22.905Zm-3.254-3.227a.471.471,0,0,0-.672,0l-5.808,5.754a.475.475,0,1,0,.672.672l5.808-5.754A.471.471,0,0,0,256.756,19.679Zm-1.613-1.613a.471.471,0,0,0-.672,0l-5.808,5.754a.475.475,0,1,0,.672.672l5.808-5.754A.471.471,0,0,0,255.143,18.065Zm-1.64-1.64a.471.471,0,0,0-.672,0l-5.781,5.781a.475.475,0,0,0,.672.672l5.781-5.754A.5.5,0,0,0,253.5,16.425Zm-1.613-1.613a.471.471,0,0,0-.672,0l-5.808,5.781a.475.475,0,0,0,.672.672l5.808-5.781A.471.471,0,0,0,251.889,14.811Z" transform="translate(-228.522 -13.302)" fill="#e8e4c8"/>
    <path id="Path_128" data-name="Path 128" d="M312.25,12.158,300.714.676a.941.941,0,0,0-1.344,0l-.834.834,5.109,5.055a1.879,1.879,0,0,1-.43,2.339l-.645.753a.919.919,0,0,0,0,1.4A1.114,1.114,0,0,0,304.075,11l-1.99,1.936a.928.928,0,0,0,0,1.371,1.04,1.04,0,0,0,1.425,0l.914-.914a.974.974,0,0,0,0,1.371.941.941,0,0,0,1.344,0l1.667-1.748a1.932,1.932,0,0,1,2.77,0l1.264,1.237.78-.78a.909.909,0,0,0,0-1.318Z" transform="translate(-278.153)" fill="#e2574c"/>
    <path id="Path_129" data-name="Path 129" d="M180.268,160.421a1.084,1.084,0,1,1-1.533,0A1.071,1.071,0,0,1,180.268,160.421Zm2.42,2.42a1.084,1.084,0,1,1-1.533,0A1.071,1.071,0,0,1,182.688,162.841Z" transform="translate(-166.231 -148.801)" fill="#b4b5b6"/>
    <path id="Path_130" data-name="Path 130" d="M303.608,17.5l-.645.753a.919.919,0,0,0,0,1.4,1.134,1.134,0,0,0,1.425.027l.618-.592a1.144,1.144,0,0,1-1.506.054.919.919,0,0,1,0-1.4l.645-.753a1.913,1.913,0,0,0,.43-2.313l-5.109-5.028-.538.538,5.109,5.028A1.875,1.875,0,0,1,303.608,17.5Zm-.592,4.894a.96.96,0,0,1-.054-1.318l-.484.457a.928.928,0,0,0,0,1.371,1.04,1.04,0,0,0,1.425,0l.538-.538A1.015,1.015,0,0,1,303.016,22.395Zm2.313.484a.974.974,0,0,1,0-1.371l-.538.538a.974.974,0,0,0,0,1.371.941.941,0,0,0,1.344,0l.43-.43A.979.979,0,0,1,305.329,22.879Zm7.018-.511-1.264-1.21a1.9,1.9,0,0,0-2.743,0l-.376.376a1.936,1.936,0,0,1,2.581.134l1.264,1.21.78-.78Z" transform="translate(-278.52 -8.624)" fill="#d65348"/>
  </g>
</svg>
