<svg xmlns="http://www.w3.org/2000/svg" width="28.48" height="28.48" viewBox="0 0 28.48 28.48">
  <path id="parquet" d="M27.973,28.48H.506A.506.506,0,0,1,0,27.973V.506A.506.506,0,0,1,.506,0H27.973a.506.506,0,0,1,.506.506V27.973A.506.506,0,0,1,27.973,28.48Zm-6.679-1.013h6.173V21.294L21.741,27.02l0,0,0,0Zm-7.883,0h6.451l.8-.8-3.226-3.226Zm-7.36,0h5.928l8.8-8.8L17.818,15.7,8.47,25.047h0Zm-5.038,0H4.618L7.4,24.689,4.284,21.577,1.013,24.848Zm17.142-4.744,3.226,3.226,6.086-6.086V13.411l-5.61,5.61h0ZM5,20.861l3.112,3.112L23.644,8.441,20.532,5.329l-6.089,6.089h0ZM1.013,16.613v6.8l2.908-2.908.005-.005.005-.005,9.436-9.436-3.33-3.33Zm17.522-1.63L21.5,17.946l5.954-5.953.015-.014V6.05ZM1.013,8.348v6.844l4.01-3.947L1.587,7.807ZM2.324,7.112l3.421,3.421,9.638-9.487H8.764Zm8.434-.092,3.325,3.325,9.333-9.332H16.862Zm10.49-2.407L24.36,7.725l3.107-3.107V1.013H24.848ZM1.013,1.013V6.956L1.2,6.778c.011-.013.022-.025.034-.037A.5.5,0,0,1,1.3,6.688L7.323,1.013Z" fill="#000002"/>
</svg>
