<svg xmlns="http://www.w3.org/2000/svg" width="32.471" height="31.389" viewBox="0 0 32.471 31.389">
  <g id="tap" transform="translate(0 0)">
    <path id="Path_201" data-name="Path 201" d="M14.494,136A6.494,6.494,0,0,0,8,142.494v4.329h6.494v-2.165a2.165,2.165,0,0,1,2.165-2.165h22.73V136Zm0,0" transform="translate(-7.459 -126.8)" fill="#abb1ba"/>
    <path id="Path_202" data-name="Path 202" d="M158.614,102.071h-1.323c-2.922,0-5.292-2.1-5.292-4.69L154.646,88h6.614l2.646,9.38C163.906,99.971,161.536,102.071,158.614,102.071Zm0,0" transform="translate(-141.717 -82.047)" fill="#688cba"/>
    <path id="Path_203" data-name="Path 203" d="M28.329,349.412a2.165,2.165,0,1,1-4.329,0c0-1.624,2.165-5.412,2.165-5.412S28.329,347.788,28.329,349.412Zm0,0" transform="translate(-22.377 -320.729)" fill="#a3d4f7"/>
    <g id="Group_9" data-name="Group 9" transform="translate(9.741 0.541)">
      <path id="Path_204" data-name="Path 204" d="M145.082,8h10.824a1.082,1.082,0,0,1,0,2.165H145.082a1.082,1.082,0,1,1,0-2.165Zm0,0" transform="translate(-144 -8)" fill="#7e8589"/>
      <path id="Path_205" data-name="Path 205" d="M224,40h2.165v3.247H224Zm0,0" transform="translate(-218.588 -37.835)" fill="#7e8589"/>
      <path id="Path_206" data-name="Path 206" d="M424,104h3.247v10.824H424Zm0,0" transform="translate(-405.059 -97.506)" fill="#7e8589"/>
    </g>
    <path id="Path_207" data-name="Path 207" d="M18.236,336.515c-.229.4-2.236,3.965-2.236,5.682a2.706,2.706,0,1,0,5.412,0c0-1.718-2.007-5.28-2.236-5.682a.563.563,0,0,0-.94,0Zm.47,7.306a1.624,1.624,0,0,1-1.624-1.624,13.558,13.558,0,0,1,1.624-4.278,13.558,13.558,0,0,1,1.624,4.278A1.624,1.624,0,0,1,18.706,343.821Zm0,0" transform="translate(-14.918 -313.514)"/>
    <path id="Path_208" data-name="Path 208" d="M31.93,6.494H28.683a.541.541,0,0,0-.541.541V8.659H20.868l-.8-2.853a.542.542,0,0,0-.521-.395H17.859V3.247h3.788a1.624,1.624,0,1,0,0-3.247H10.824a1.624,1.624,0,0,0,0,3.247h3.788V5.412H12.928a.542.542,0,0,0-.521.395l-.8,2.853H7.035A7.044,7.044,0,0,0,0,15.694v4.329a.541.541,0,0,0,.541.541H7.035a.541.541,0,0,0,.541-.541V17.859A1.624,1.624,0,0,1,9.2,16.235h.634a5.7,5.7,0,0,0,5.74,4.329H16.9a5.7,5.7,0,0,0,5.74-4.329h5.5v1.624a.541.541,0,0,0,.541.541H31.93a.541.541,0,0,0,.541-.541V7.035a.541.541,0,0,0-.541-.541ZM10.282,1.624a.541.541,0,0,1,.541-.541H21.647a.541.541,0,1,1,0,1.082H10.824A.541.541,0,0,1,10.282,1.624Zm5.412,1.624h1.082V5.412H15.694Zm-9.2,14.612v1.624H1.082V15.694A5.96,5.96,0,0,1,7.035,9.741H11.3L9.771,15.153H9.2A2.709,2.709,0,0,0,6.494,17.859Zm10.4,1.624H15.574a4.5,4.5,0,0,1-4.75-4.077l2.514-8.912h5.795l2.514,8.912a4.5,4.5,0,0,1-4.75,4.077Zm5.8-4.329L21.174,9.741h6.968v5.412Zm8.689,2.165H29.224V7.577h2.165Zm0,0"/>
  </g>
</svg>
