<svg id="Location" xmlns="http://www.w3.org/2000/svg" width="41.173" height="41.173" viewBox="0 0 41.173 41.173">
  <g id="Layer_x0020_1" transform="translate(10.313 5.147)">
    <path id="Path_342" data-name="Path 342" d="M10.8,30.957c-.39-.751-1-1.852-1.7-3.134-2.878-5.218-7.388-13.4-7.388-16.7a10.274,10.274,0,0,1,20.548,0c0,3.3-4.511,11.478-7.388,16.7-.732,1.327-1.357,2.46-1.745,3.212l-1.141-.588,1.143.59a1.287,1.287,0,0,1-2.325-.08Zm.547-4.371q.333.6.634,1.151.3-.546.634-1.151c2.752-4.99,7.067-12.813,7.067-15.459a7.7,7.7,0,1,0-15.4,0c0,2.646,4.314,10.469,7.067,15.459Z" transform="translate(-1.71 -0.853)" fill="#0a93e2"/>
    <path id="Path_343" data-name="Path 343" d="M7.212,1.755a4.554,4.554,0,1,1-3.22,1.334,4.539,4.539,0,0,1,3.22-1.334Zm1.4,3.153a1.981,1.981,0,1,0,.58,1.4A1.974,1.974,0,0,0,8.612,4.909Z" transform="translate(3.062 3.685)" fill="#0a93e2"/>
    <path id="Path_344" data-name="Path 344" d="M13.057,11.921A4.553,4.553,0,1,1,14.391,8.7a4.54,4.54,0,0,1-1.334,3.22ZM2.137,8.981c0,2.646,4.314,10.469,7.067,15.459q.333.6.634,1.151.3-.546.634-1.151c2.752-4.99,7.067-12.813,7.067-15.459a7.7,7.7,0,1,0-15.4,0Z" transform="translate(0.437 1.293)" fill="#c2e4f8" fill-rule="evenodd"/>
    <path id="Path_345" data-name="Path 345" d="M5.065,6.143a1.98,1.98,0,1,0-1.4-.58A1.974,1.974,0,0,0,5.065,6.143Z" transform="translate(5.209 5.832)" fill="#f4f4f4" fill-rule="evenodd"/>
  </g>
  <rect id="Rectangle_18" data-name="Rectangle 18" width="41.173" height="41.173" fill="none"/>
</svg>
