<svg xmlns="http://www.w3.org/2000/svg" xmlns:xlink="http://www.w3.org/1999/xlink" width="190.19" height="113.144" viewBox="0 0 190.19 113.144">
  <defs>
    <filter id="صنعة" x="24.19" y="14.144" width="166" height="99" filterUnits="userSpaceOnUse">
      <feOffset dy="6" input="SourceAlpha"/>
      <feGaussianBlur stdDeviation="3" result="blur"/>
      <feFlood flood-opacity="0.278"/>
      <feComposite operator="in" in2="blur"/>
      <feComposite in="SourceGraphic"/>
    </filter>
  </defs>
  <g id="Group_1" data-name="Group 1" transform="translate(-70.126 -245.238)">
    <g transform="matrix(1, 0, 0, 1, 70.13, 245.24)" filter="url(#صنعة)">
      <text id="صنعة-2" data-name="صنعة" transform="translate(33.19 83.14)" fill="#fff" font-size="61" font-family="SegoeUI, Segoe UI"><tspan x="0" y="0">صنعة</tspan></text>
    </g>
    <g id="repairing" transform="translate(70.126 245.238)">
      <path id="Path_1" data-name="Path 1" d="M45.29,363.981H28.83a1.548,1.548,0,0,1-1.548-1.548v-4.622a7.832,7.832,0,0,1,7.832-7.832h3.892a7.832,7.832,0,0,1,7.832,7.832v4.622A1.548,1.548,0,0,1,45.29,363.981Z" transform="translate(-24.991 -315.718)" fill="#2682fd"/>
      <path id="Path_2" data-name="Path 2" d="M145.975,349.98h-2.937a7.832,7.832,0,0,1,7.832,7.832v4.622a1.548,1.548,0,0,1-1.548,1.548h2.937a1.548,1.548,0,0,0,1.548-1.548v-4.622A7.832,7.832,0,0,0,145.975,349.98Z" transform="translate(-129.415 -315.718)" fill="#036ffe"/>
      <path id="Path_3" data-name="Path 3" d="M309.625,0A9.239,9.239,0,0,0,301.9,14.309l-1.481,3.011a.985.985,0,0,0,1.207,1.207l3.037-1.494A9.238,9.238,0,1,0,309.625,0Z" transform="translate(-271.36)" fill="#b6c4cf"/>
      <path id="Path_4" data-name="Path 4" d="M381.22,0a9.309,9.309,0,0,0-1.468.117,9.239,9.239,0,0,1,0,18.242A9.238,9.238,0,1,0,381.22,0Z" transform="translate(-342.955)" fill="#9facba"/>
      <circle id="Ellipse_1" data-name="Ellipse 1" cx="3.046" cy="3.046" r="3.046" transform="translate(19.375 21.221) rotate(-45)" fill="#fed2a4"/>
      <path id="Path_5" data-name="Path 5" d="M21.082,99.6h-7.99a6.021,6.021,0,0,0-6.021,5.98l-.017,2.447c-.041,0-.083,0-.124,0a3.046,3.046,0,1,0,0,6.093c.087,0,.173,0,.259-.012a10.027,10.027,0,0,0,7.87,8.009v3a2.106,2.106,0,0,0,2.106,2.106h.112a2.106,2.106,0,0,0,2.106-2.106v-3.079c4.4-1.054,6.4-5.015,6.4-9.741l.045-6.631C25.853,102.325,24.423,99.6,21.082,99.6Z" transform="translate(-3.883 -89.853)" fill="#fed2a4"/>
      <path id="Path_6" data-name="Path 6" d="M128.8,99.6h-2.937a6.021,6.021,0,0,1,6.021,6.062l-.045,6.631a10.018,10.018,0,0,1-8.548,9.909,10.021,10.021,0,0,0,11.485-9.909l.045-6.631A6.021,6.021,0,0,0,128.8,99.6Z" transform="translate(-111.599 -89.853)" fill="#ffbd86"/>
      <path id="Path_7" data-name="Path 7" d="M83.171,230.053a.734.734,0,0,1-.734-.734V228.6a.734.734,0,0,1,1.468,0v.717A.734.734,0,0,1,83.171,230.053Z" transform="translate(-74.747 -205.559)" fill="#384949"/>
      <path id="Path_8" data-name="Path 8" d="M175.662,230.053a.734.734,0,0,1-.734-.734V228.6a.734.734,0,0,1,1.468,0v.717A.734.734,0,0,1,175.662,230.053Z" transform="translate(-158.183 -205.559)" fill="#384949"/>
      <path id="Path_9" data-name="Path 9" d="M121.368,268.046a2.025,2.025,0,0,1-1.768-1.039.734.734,0,0,1,1.283-.715.555.555,0,0,0,.97,0,.734.734,0,0,1,1.285.712A2.024,2.024,0,0,1,121.368,268.046Z" transform="translate(-108.188 -239.88)" fill="#ffbd86"/>
      <path id="Path_10" data-name="Path 10" d="M68.6,187.535a.734.734,0,0,1-.4-1.353,2.967,2.967,0,0,1,2.778-.225.734.734,0,1,1-.582,1.348,1.5,1.5,0,0,0-1.4.114A.731.731,0,0,1,68.6,187.535Z" transform="translate(-61.597 -167.533)" fill="#c86d36"/>
      <path id="Path_11" data-name="Path 11" d="M172.32,187.534a.731.731,0,0,1-.395-.116,1.5,1.5,0,0,0-1.4-.114.734.734,0,0,1-.582-1.348,2.966,2.966,0,0,1,2.778.225.734.734,0,0,1-.4,1.353Z" transform="translate(-153.282 -167.532)" fill="#c86d36"/>
      <path id="Path_12" data-name="Path 12" d="M49.683,51.833H42.96a6.654,6.654,0,0,0-6.654,6.654V62.41l7.076-.71a29.447,29.447,0,0,1,5.88,0l7.076.71V58.487A6.654,6.654,0,0,0,49.683,51.833Z" transform="translate(-33.132 -46.759)" fill="#006af8"/>
      <path id="Path_13" data-name="Path 13" d="M40.445,151.269l-4.139.415v.295l7.076-.71q.735-.074,1.472-.11A29.466,29.466,0,0,0,40.445,151.269Z" transform="translate(-33.132 -136.328)" fill="#ef4424"/>
      <path id="Path_14" data-name="Path 14" d="M145.882,51.833h-2.937a6.654,6.654,0,0,1,6.654,6.654v3.628l2.937.295V58.487A6.654,6.654,0,0,0,145.882,51.833Z" transform="translate(-129.331 -46.759)" fill="#004198"/>
      <path id="Path_15" data-name="Path 15" d="M38.8,133.831l-6.068.581a1.456,1.456,0,0,0-1.348,1.421,1.472,1.472,0,0,0,1.647,1.421L38.8,136.7a32.342,32.342,0,0,1,6.163,0l5.769.552a1.472,1.472,0,0,0,1.647-1.421,1.456,1.456,0,0,0-1.348-1.421l-6.068-.581a32.342,32.342,0,0,0-6.163,0Z" transform="translate(-28.687 -120.597)" fill="#2682fd"/>
      <path id="Path_16" data-name="Path 16" d="M134.23,134.418l-6.068-.581a32.345,32.345,0,0,0-4.55-.113q.808.037,1.613.113l6.068.581a1.456,1.456,0,0,1,1.348,1.421,1.415,1.415,0,0,1-.732,1.228l2.022.194a1.472,1.472,0,0,0,1.647-1.421A1.456,1.456,0,0,0,134.23,134.418Z" transform="translate(-111.891 -120.602)" fill="#006af8"/>
      <path id="Path_17" data-name="Path 17" d="M172.123,411.884h-2.545a.779.779,0,0,1-.779-.779V410.1a.779.779,0,0,1,.779-.779h2.545a.779.779,0,0,1,.779.779V411.1A.779.779,0,0,1,172.123,411.884Z" transform="translate(-152.654 -369.249)" fill="#fff3ef"/>
      <path id="Path_18" data-name="Path 18" d="M85,468.94v-1.877a.734.734,0,0,0-1.468,0v1.877Z" transform="translate(-75.735 -420.677)" fill="#2442d7"/>
      <path id="Path_19" data-name="Path 19" d="M181,468.94v-1.877a.734.734,0,1,0-1.468,0v1.877Z" transform="translate(-162.337 -420.677)" fill="#2442d7"/>
      <path id="Path_20" data-name="Path 20" d="M350.775,49.192l-.814-.282a4.473,4.473,0,0,0-.015-2.888l.814-.281a.422.422,0,0,0,.251-.566,5.743,5.743,0,0,0-3.043-3.021.423.423,0,0,0-.563.253l-.28.814a4.472,4.472,0,0,0-2.888.014l-.28-.814a.421.421,0,0,0-.562-.252,5.743,5.743,0,0,0-3.026,3.044.422.422,0,0,0,.255.564l.813.276a4.473,4.473,0,0,0,.011,2.891l-.814.28a.423.423,0,0,0-.252.565,5.79,5.79,0,0,0,3.027,3.058.424.424,0,0,0,.572-.252l.277-.822,0-.008.006-.017a4.472,4.472,0,0,0,2.888-.01l.28.815a.421.421,0,0,0,.562.253,5.742,5.742,0,0,0,3.033-3.049A.422.422,0,0,0,350.775,49.192Zm-5.629-.072a1.726,1.726,0,1,1,2.186-1.084,1.728,1.728,0,0,1-2.186,1.084Z" transform="translate(-307.396 -37.998)" fill="#26a6fe"/>
      <path id="Path_21" data-name="Path 21" d="M398.4,49.192l-.814-.282a4.472,4.472,0,0,0-.015-2.888l.814-.281a.422.422,0,0,0,.251-.566,5.743,5.743,0,0,0-3.043-3.021.423.423,0,0,0-.563.253l-.28.814A4.478,4.478,0,0,0,393.67,43a6.122,6.122,0,0,1-.545,8.973,4.488,4.488,0,0,0,1.65-.24l.279.815a.421.421,0,0,0,.562.253,5.742,5.742,0,0,0,3.033-3.049A.422.422,0,0,0,398.4,49.192Z" transform="translate(-355.019 -37.999)" fill="#0593fc"/>
    </g>
  </g>
</svg>
