<svg xmlns="http://www.w3.org/2000/svg" width="37.927" height="45.455" viewBox="0 0 37.927 45.455">
  <g id="behavior" transform="translate(-42.395)">
    <g id="Group_27" data-name="Group 27" transform="translate(43.061 0.666)">
      <g id="Group_25" data-name="Group 25" transform="translate(0)">
        <path id="Path_323" data-name="Path 323" d="M72.139,20.663V16.581l-2.591-.4a8.819,8.819,0,0,0-.775-1.871L70.325,12.2,67.438,9.314l-2.113,1.552a8.819,8.819,0,0,0-1.871-.775l-.4-2.591H58.976l-.4,2.591a8.819,8.819,0,0,0-1.871.775L54.6,9.314,51.709,12.2l1.552,2.113a8.819,8.819,0,0,0-.775,1.871l-2.591.4v4.082l2.591.4a8.819,8.819,0,0,0,.775,1.871l-1.552,2.113L54.6,27.93l2.113-1.552a8.817,8.817,0,0,0,1.871.775l.4,2.591h4.082l.4-2.591a8.817,8.817,0,0,0,1.871-.775l2.113,1.552,2.887-2.887-1.552-2.113a8.819,8.819,0,0,0,.775-1.871ZM61.017,23.377a4.755,4.755,0,1,1,4.755-4.755A4.755,4.755,0,0,1,61.017,23.377Z" transform="translate(-49.895 -7.5)" fill="#afb5bf"/>
      </g>
      <path id="Path_324" data-name="Path 324" d="M119.923,134.307a11.677,11.677,0,1,0-23.354,0c0,.258.009.514.026.767l-3.542,9.536h3.886v3.618a2.637,2.637,0,0,0,2.637,2.637h5.344v5.667h11.027V143.083A11.648,11.648,0,0,0,119.923,134.307Z" transform="translate(-89.221 -112.409)" fill="#f9c295"/>
      <path id="Path_325" data-name="Path 325" d="M252.194,122.631q-.592,0-1.168.058a11.677,11.677,0,0,1,6.533,20.4v13.449H259.9V143.084a11.676,11.676,0,0,0-7.7-20.453Z" transform="translate(-233.17 -112.41)" fill="#e59f6a"/>
      <path id="Path_326" data-name="Path 326" d="M184.136,471.494h16.371v-3.216h-14.14Z" transform="translate(-172.218 -427.371)" fill="#ebeef2"/>
      <rect id="Rectangle_13" data-name="Rectangle 13" width="2.256" height="3.216" transform="translate(26.033 40.907)" fill="#d1d6de"/>
      <g id="Group_26" data-name="Group 26" transform="translate(14.267 10.402)">
        <path id="Path_327" data-name="Path 327" d="M323.67,134.2l5.239-4.009a.842.842,0,0,0,0-1.338l-5.239-4.009a.842.842,0,0,0-1.354.669v1.568h-4.962a1.06,1.06,0,0,0-1.06,1.06V130.9a1.06,1.06,0,0,0,1.06,1.06h4.962v1.568A.842.842,0,0,0,323.67,134.2Z" transform="translate(-306.911 -124.67)" fill="#f2df33"/>
        <path id="Path_328" data-name="Path 328" d="M216.169,157.936l-5.239-4.009a.842.842,0,0,1,0-1.338l5.239-4.009a.842.842,0,0,1,1.354.669v1.568h4.962a1.06,1.06,0,0,1,1.06,1.06v2.762a1.06,1.06,0,0,1-1.06,1.06h-4.962v1.568A.842.842,0,0,1,216.169,157.936Z" transform="translate(-210.6 -146.299)" fill="#48cfb7"/>
        <path id="Path_329" data-name="Path 329" d="M319.857,176.627a1.06,1.06,0,0,0-1.06-1.06h-2.5v1.715a1.06,1.06,0,0,0,1.06,1.06h2.5Z" transform="translate(-306.912 -171.048)" fill="#5c9cee"/>
      </g>
    </g>
    <g id="Group_28" data-name="Group 28" transform="translate(42.395)">
      <path id="Path_330" data-name="Path 330" d="M92.583,3.351,94.24,4.568a.666.666,0,0,0,.718.045,8.168,8.168,0,0,1,1.73-.716.666.666,0,0,0,.476-.54l.31-2.026h2.939l.31,2.026a.666.666,0,0,0,.476.54,8.164,8.164,0,0,1,1.73.716.666.666,0,0,0,.718-.045L105.3,3.355l2.078,2.078-1.213,1.652a.666.666,0,0,0-.045.718,8.167,8.167,0,0,1,.716,1.73.666.666,0,0,0,.54.476l1.981.3a.666.666,0,1,0,.2-1.316l-1.57-.24a9.513,9.513,0,0,0-.5-1.217l1.305-1.777a.666.666,0,0,0-.066-.865l-2.887-2.887a.666.666,0,0,0-.865-.066l-1.777,1.305a9.517,9.517,0,0,0-1.217-.5l-.334-2.18A.666.666,0,0,0,100.984,0H96.9a.666.666,0,0,0-.658.565l-.334,2.18a9.517,9.517,0,0,0-1.217.5L92.915,1.943a.666.666,0,0,0-.865.066l-.34.34a.666.666,0,0,0,.872,1Z" transform="translate(-87.155)"/>
      <path id="Path_331" data-name="Path 331" d="M47.762,64.148a.664.664,0,0,0,.394-.129l.559-.411a.666.666,0,1,0-.788-1.073l-.1.072L45.75,60.529l1.213-1.652a.666.666,0,0,0,.045-.718,8.166,8.166,0,0,1-.716-1.73.666.666,0,0,0-.54-.476l-2.026-.31V52.7l2.026-.31a.666.666,0,0,0,.54-.476,8.166,8.166,0,0,1,.716-1.73.666.666,0,0,0-.045-.718L45.75,47.82l.167-.167a.666.666,0,1,0-.942-.942l-.571.571a.666.666,0,0,0-.066.865l1.305,1.777a9.527,9.527,0,0,0-.5,1.217l-2.18.334a.666.666,0,0,0-.565.658v4.082a.666.666,0,0,0,.565.658l2.18.334a9.522,9.522,0,0,0,.5,1.217L44.339,60.2a.666.666,0,0,0,.066.865l2.887,2.887A.665.665,0,0,0,47.762,64.148Z" transform="translate(-42.395 -42.386)"/>
      <path id="Path_332" data-name="Path 332" d="M119.535,73.051a4.071,4.071,0,0,1,3.207,1.552.666.666,0,1,0,1.044-.827A5.421,5.421,0,0,0,115,80.112a.666.666,0,1,0,1.113-.731,4.09,4.09,0,0,1,3.421-6.33Z" transform="translate(-107.747 -65.352)"/>
      <path id="Path_333" data-name="Path 333" d="M113.1,127.861a.666.666,0,0,0-.722.6,10.954,10.954,0,0,1-3.705,7.284.666.666,0,0,0-.227.5v9.568h-9.7v-1.785a.666.666,0,0,0-.666-.666H92.74a1.974,1.974,0,0,1-1.972-1.972v-3.618a.666.666,0,0,0-.666-.666H87.174l3.209-8.638a.666.666,0,0,0,.04-.276c-.016-.242-.024-.485-.024-.723a11.019,11.019,0,0,1,14.784-10.348.666.666,0,1,0,.456-1.251,12.351,12.351,0,0,0-16.571,11.6c0,.22.006.443.018.667l-3.493,9.4a.666.666,0,0,0,.624.9h3.22v2.952a3.307,3.307,0,0,0,3.3,3.3h4.678v1.119h-.884a.666.666,0,0,0-.547.286l-2.231,3.216a.666.666,0,0,0,.547,1.045h16.371a.666.666,0,0,0,.666-.666v-3.216a.666.666,0,0,0-.666-.666h-.9v-9.271a12.275,12.275,0,0,0,3.927-7.963A.666.666,0,0,0,113.1,127.861Zm-3.091,21.172H95.575l1.307-1.884h13.126v1.884Z" transform="translate(-81.719 -104.91)"/>
      <path id="Path_334" data-name="Path 334" d="M226.168,121.491l-5.239-4.009a1.508,1.508,0,0,0-2.425,1.2v.9h-4.3a1.728,1.728,0,0,0-1.726,1.726v.381h-1.129v-.9a1.508,1.508,0,0,0-2.425-1.2l-5.239,4.009a1.508,1.508,0,0,0,0,2.4L208.929,130a1.508,1.508,0,0,0,2.425-1.2v-.9h4.3a1.728,1.728,0,0,0,1.726-1.726V125.8H218.5v.9a1.507,1.507,0,0,0,2.425,1.2l5.239-4.009a1.508,1.508,0,0,0,0-2.4Zm-10.124,2.973h-1.835a.4.4,0,0,1-.394-.394V123.02h1.835a.4.4,0,0,1,.394.394Zm-.394,2.107h-4.962a.666.666,0,0,0-.666.666V128.8a.176.176,0,0,1-.284.14l-5.239-4.009a.176.176,0,0,1,0-.28l5.239-4.009a.176.176,0,0,1,.284.14v1.568a.666.666,0,0,0,.666.666h1.795v1.049a1.728,1.728,0,0,0,1.726,1.726h1.835v.381A.4.4,0,0,1,215.65,126.571Zm9.709-3.743-5.239,4.009a.176.176,0,0,1-.284-.14v-1.567a.666.666,0,0,0-.666-.666h-1.795v-1.049a1.728,1.728,0,0,0-1.726-1.726h-1.835v-.381a.4.4,0,0,1,.394-.394h4.962a.666.666,0,0,0,.666-.666V118.68a.176.176,0,0,1,.284-.14l5.239,4.009a.176.176,0,0,1,0,.28Z" transform="translate(-188.832 -106.768)"/>
      <path id="Path_335" data-name="Path 335" d="M272.448,295.319h-.894a.666.666,0,1,0,0,1.332h.894a2.262,2.262,0,0,0,2.259-2.259v-2.315a2.262,2.262,0,0,0-2.259-2.259h-.894a.666.666,0,1,0,0,1.332h.894a.929.929,0,0,1,.928.928v2.315A.929.929,0,0,1,272.448,295.319Z" transform="translate(-250.603 -264.087)"/>
    </g>
  </g>
</svg>
