<svg xmlns="http://www.w3.org/2000/svg" width="35.904" height="32.64" viewBox="0 0 35.904 32.64">
  <g id="money" transform="translate(0 -23.272)">
    <path id="Path_292" data-name="Path 292" d="M34.272,44.488H1.632A1.637,1.637,0,0,1,0,42.856V24.9a1.637,1.637,0,0,1,1.632-1.632h32.64A1.637,1.637,0,0,1,35.9,24.9V42.856A1.637,1.637,0,0,1,34.272,44.488Z" transform="translate(0 0)" fill="#0e9347"/>
    <path id="Path_293" data-name="Path 293" d="M258.5,232.727a5.462,5.462,0,0,0-4.57,2.366,6.086,6.086,0,0,0-2.774-.734,5.709,5.709,0,0,0-5.63,4.9h17.055a1.66,1.66,0,0,0,1.632-1.387A5.813,5.813,0,0,0,258.5,232.727Z" transform="translate(-228.309 -194.767)" fill="#0d8944"/>
    <path id="Path_294" data-name="Path 294" d="M52.649,64.5H26.537a3.274,3.274,0,0,0-3.264-3.264V49.81a3.274,3.274,0,0,0,3.264-3.264H52.649a3.274,3.274,0,0,0,3.264,3.264V61.234A3.274,3.274,0,0,0,52.649,64.5Z" transform="translate(-21.641 -21.642)" fill="#3bb54a"/>
    <g id="Group_21" data-name="Group 21" transform="translate(6.528 26.536)">
      <path id="Path_295" data-name="Path 295" d="M264.994,232.727a5.461,5.461,0,0,0-4.57,2.366,6.087,6.087,0,0,0-2.774-.734,5.606,5.606,0,0,0-5.141,3.264h13.3a3.257,3.257,0,0,1,3.182-3.264A5.9,5.9,0,0,0,264.994,232.727Z" transform="translate(-241.33 -221.303)" fill="#0e9347"/>
      <ellipse id="Ellipse_21" data-name="Ellipse 21" cx="6.528" cy="7.344" rx="6.528" ry="7.344" transform="translate(4.896)" fill="#0e9347"/>
      <circle id="Ellipse_22" data-name="Ellipse 22" cx="1.632" cy="1.632" r="1.632" transform="translate(0 5.712)" fill="#0e9347"/>
      <circle id="Ellipse_23" data-name="Ellipse 23" cx="1.632" cy="1.632" r="1.632" transform="translate(19.584 5.712)" fill="#0e9347"/>
    </g>
    <path id="Path_296" data-name="Path 296" d="M213.535,108.809H211.9a.816.816,0,0,1,0-1.632h2.448a.816.816,0,0,0,0-1.632h-.816a.816.816,0,0,0-1.632,0,2.448,2.448,0,1,0,0,4.9h1.632a.816.816,0,0,1,0,1.632h-2.448a.816.816,0,0,0,0,1.632h.816a.816.816,0,1,0,1.632,0,2.448,2.448,0,0,0,0-4.9Z" transform="translate(-194.767 -75.745)" fill="#89c763"/>
    <circle id="Ellipse_24" data-name="Ellipse 24" cx="5.712" cy="5.712" r="5.712" transform="translate(15.504 39.592)" fill="#ffca5d"/>
    <circle id="Ellipse_25" data-name="Ellipse 25" cx="5.712" cy="5.712" r="5.712" transform="translate(22.848 37.96)" fill="#f6b545"/>
    <path id="Path_297" data-name="Path 297" d="M331.53,232.727a5.712,5.712,0,1,0,5.712,5.712A5.677,5.677,0,0,0,331.53,232.727Zm0,9.792a4.08,4.08,0,1,1,4.08-4.08A4.04,4.04,0,0,1,331.53,242.519Z" transform="translate(-302.97 -194.767)" fill="#ffcb5b"/>
    <path id="Path_298" data-name="Path 298" d="M407.273,319.812h0a5.608,5.608,0,0,0,5.712-5.63H412.9a.868.868,0,0,0-.816.734,4.934,4.934,0,0,1-1.55,2.938,4.623,4.623,0,0,1-2.53,1.224A.731.731,0,0,0,407.273,319.812Z" transform="translate(-378.713 -270.51)" fill="#f6b545"/>
    <path id="Path_299" data-name="Path 299" d="M331.53,233.866h0a5.608,5.608,0,0,0-5.712,5.63h.082a.868.868,0,0,0,.816-.734,4.933,4.933,0,0,1,1.55-2.938,4.624,4.624,0,0,1,2.53-1.224A.731.731,0,0,0,331.53,233.866Z" transform="translate(-302.97 -195.825)" fill="#ffe27a"/>
    <path id="Path_300" data-name="Path 300" d="M349.662,260.651a4.04,4.04,0,0,1,4.08-4.08,3.849,3.849,0,0,1,2.611.979,4.067,4.067,0,0,0-7.262,2.53,3.912,3.912,0,0,0,1.469,3.1A3.827,3.827,0,0,1,349.662,260.651Z" transform="translate(-324.611 -216.408)" fill="#f19920"/>
    <path id="Path_301" data-name="Path 301" d="M437.313,311.3a.3.3,0,0,1-.245-.082.394.394,0,0,1,0-.571,2.723,2.723,0,0,0,.734-1.877.408.408,0,1,1,.816,0,3.768,3.768,0,0,1-.9,2.448A.887.887,0,0,1,437.313,311.3Z" transform="translate(-406.305 -265.1)" fill="#ffcb5b"/>
    <g id="Group_22" data-name="Group 22" transform="translate(22.93 39.592)">
      <path id="Path_302" data-name="Path 302" d="M396.453,284.17a.771.771,0,0,1-.816-.816V280.09a.816.816,0,1,1,1.632,0v3.264A.771.771,0,0,1,396.453,284.17Z" transform="translate(-390.822 -277.642)" fill="#f19920"/>
      <path id="Path_303" data-name="Path 303" d="M335.631,264.894a6.63,6.63,0,0,0-3.917-4.406,6.822,6.822,0,0,0-3.1-4.488,5.9,5.9,0,0,0-1.632,4,5.677,5.677,0,0,0,5.712,5.712A4.733,4.733,0,0,0,335.631,264.894Z" transform="translate(-326.981 -256)" fill="#f19920"/>
    </g>
    <g id="Group_23" data-name="Group 23" transform="translate(24.48 40.653)">
      <path id="Path_304" data-name="Path 304" d="M350.559,277.248a4.293,4.293,0,0,1-.979-2.611,3.95,3.95,0,0,1,1.306-2.938,3.551,3.551,0,0,0-.49-.571,4,4,0,0,0-1.306,3.019A3.912,3.912,0,0,0,350.559,277.248Z" transform="translate(-349.09 -271.128)" fill="#e78825"/>
      <path id="Path_305" data-name="Path 305" d="M395.636,321.164v1.142a.816.816,0,0,0,1.632,0v-.163A6.67,6.67,0,0,0,395.636,321.164Z" transform="translate(-392.372 -317.655)" fill="#e78825"/>
    </g>
    <path id="Path_306" data-name="Path 306" d="M334.549,265.975a5.216,5.216,0,0,0-.653-1.55,3.949,3.949,0,0,1-2.366.816,4.04,4.04,0,0,1-4.08-4.08,4,4,0,0,1,1.306-3.019,4.978,4.978,0,0,0-1.306-.979,5.9,5.9,0,0,0-1.632,4,5.677,5.677,0,0,0,5.712,5.712A5.471,5.471,0,0,0,334.549,265.975Z" transform="translate(-302.97 -217.488)" fill="#f6b545"/>
    <path id="Path_307" data-name="Path 307" d="M410.046,372.364a5.64,5.64,0,0,1-2.04.816.868.868,0,0,0-.734.816h0a5.472,5.472,0,0,0,3.019-.9Z" transform="translate(-378.712 -324.612)" fill="#f19920"/>
    <path id="Path_308" data-name="Path 308" d="M327.45,257.164a5.9,5.9,0,0,0-1.632,4h.082a.868.868,0,0,0,.816-.734,5.077,5.077,0,0,1,1.469-2.856A3.308,3.308,0,0,1,327.45,257.164Z" transform="translate(-302.97 -217.49)" fill="#ffcb5b"/>
    <circle id="Ellipse_26" data-name="Ellipse 26" cx="5.712" cy="5.712" r="5.712" transform="translate(15.504 39.592)" fill="#f6b545"/>
    <path id="Path_309" data-name="Path 309" d="M290.909,319.893a5.656,5.656,0,0,0,.245,1.632h.571a5.693,5.693,0,0,0,5.467-7.344h-.571A5.677,5.677,0,0,0,290.909,319.893Z" transform="translate(-270.509 -270.509)" fill="#f19920"/>
    <path id="Path_310" data-name="Path 310" d="M226.8,256a5.712,5.712,0,1,0,5.712,5.712A5.677,5.677,0,0,0,226.8,256Zm0,9.792a4.08,4.08,0,1,1,4.08-4.08A4.04,4.04,0,0,1,226.8,265.792Z" transform="translate(-205.586 -216.408)" fill="#ffcb5b"/>
    <path id="Path_311" data-name="Path 311" d="M302.545,343.085h0a5.608,5.608,0,0,0,5.712-5.63h-.082a.868.868,0,0,0-.816.734,4.933,4.933,0,0,1-1.55,2.938,4.624,4.624,0,0,1-2.53,1.224A.731.731,0,0,0,302.545,343.085Z" transform="translate(-281.329 -292.151)" fill="#f6b545"/>
    <path id="Path_312" data-name="Path 312" d="M226.8,257.139h0a5.609,5.609,0,0,0-5.712,5.63h.082a.868.868,0,0,0,.816-.734,4.934,4.934,0,0,1,1.55-2.938,4.624,4.624,0,0,1,2.53-1.224A.731.731,0,0,0,226.8,257.139Z" transform="translate(-205.586 -217.465)" fill="#ffe27a"/>
    <path id="Path_313" data-name="Path 313" d="M244.934,283.924a4.04,4.04,0,0,1,4.08-4.08,3.849,3.849,0,0,1,2.611.979,4.067,4.067,0,0,0-7.262,2.53,3.912,3.912,0,0,0,1.469,3.1A3.827,3.827,0,0,1,244.934,283.924Z" transform="translate(-227.227 -238.049)" fill="#f19920"/>
    <path id="Path_314" data-name="Path 314" d="M332.586,334.574a.3.3,0,0,1-.245-.082.394.394,0,0,1,0-.571,2.723,2.723,0,0,0,.734-1.877.408.408,0,0,1,.816,0,3.768,3.768,0,0,1-.9,2.448A.887.887,0,0,1,332.586,334.574Z" transform="translate(-308.922 -286.74)" fill="#ffcb5b"/>
    <path id="Path_315" data-name="Path 315" d="M291.725,307.443a.771.771,0,0,1-.816-.816v-3.264a.816.816,0,1,1,1.632,0v3.264A.771.771,0,0,1,291.725,307.443Z" transform="translate(-270.509 -259.691)" fill="#f19920"/>
    <g id="Group_24" data-name="Group 24" transform="translate(19.584 43.672)">
      <path id="Path_316" data-name="Path 316" d="M295.48,314.263a4.772,4.772,0,0,1,.326,1.55,4.04,4.04,0,0,1-4.08,4.08,2.775,2.775,0,0,1-.816-.082v.082a5.656,5.656,0,0,0,.245,1.632h.571a5.693,5.693,0,0,0,5.467-7.344h-.571A5.4,5.4,0,0,0,295.48,314.263Z" transform="translate(-290.094 -314.181)" fill="#f6b545"/>
      <circle id="Ellipse_27" data-name="Ellipse 27" cx="5.712" cy="5.712" r="5.712" transform="translate(0 0.816)" fill="#f6b545"/>
    </g>
    <path id="Path_317" data-name="Path 317" d="M284.984,325.818a5.712,5.712,0,1,0,5.712,5.712A5.677,5.677,0,0,0,284.984,325.818Zm0,9.792a4.08,4.08,0,1,1,4.08-4.08A4.04,4.04,0,0,1,284.984,335.61Z" transform="translate(-259.688 -281.33)" fill="#ffcb5b"/>
    <path id="Path_318" data-name="Path 318" d="M360.727,412.9h0a5.608,5.608,0,0,0,5.712-5.63h-.082a.868.868,0,0,0-.816.734,4.934,4.934,0,0,1-1.55,2.938,4.624,4.624,0,0,1-2.53,1.224A.731.731,0,0,0,360.727,412.9Z" transform="translate(-335.431 -357.073)" fill="#f6b545"/>
    <path id="Path_319" data-name="Path 319" d="M284.984,326.957h0a5.608,5.608,0,0,0-5.712,5.63h.082a.868.868,0,0,0,.816-.734,4.933,4.933,0,0,1,1.55-2.938,4.624,4.624,0,0,1,2.53-1.224A.731.731,0,0,0,284.984,326.957Z" transform="translate(-259.688 -282.387)" fill="#ffe27a"/>
    <path id="Path_320" data-name="Path 320" d="M303.116,353.742a4.04,4.04,0,0,1,4.08-4.08,3.849,3.849,0,0,1,2.611.979,4.067,4.067,0,0,0-7.262,2.53,3.912,3.912,0,0,0,1.469,3.1A3.827,3.827,0,0,1,303.116,353.742Z" transform="translate(-281.329 -302.971)" fill="#f19920"/>
    <path id="Path_321" data-name="Path 321" d="M390.767,404.392a.3.3,0,0,1-.245-.082.394.394,0,0,1,0-.571,2.723,2.723,0,0,0,.734-1.877.408.408,0,0,1,.816,0,3.768,3.768,0,0,1-.9,2.448A.887.887,0,0,1,390.767,404.392Z" transform="translate(-363.023 -351.662)" fill="#ffcb5b"/>
    <path id="Path_322" data-name="Path 322" d="M349.907,377.26a.771.771,0,0,1-.816-.816V373.18a.816.816,0,1,1,1.632,0v3.264A.771.771,0,0,1,349.907,377.26Z" transform="translate(-324.611 -324.612)" fill="#f19920"/>
  </g>
</svg>
