<svg xmlns="http://www.w3.org/2000/svg" xmlns:xlink="http://www.w3.org/1999/xlink" width="375" height="812" viewBox="0 0 375 812">
  <defs>
    <filter id="صنعة" x="91.874" y="354.762" width="241" height="140" filterUnits="userSpaceOnUse">
      <feOffset dy="6" input="SourceAlpha"/>
      <feGaussianBlur stdDeviation="3" result="blur"/>
      <feFlood flood-opacity="0.278"/>
      <feComposite operator="in" in2="blur"/>
      <feComposite in="SourceGraphic"/>
    </filter>
    <clipPath id="clip-Splash_Screen">
      <rect width="375" height="812"/>
    </clipPath>
  </defs>
  <g id="Splash_Screen" data-name="Splash Screen" clip-path="url(#clip-Splash_Screen)">
    <rect width="375" height="812" fill="#ffe346"/>
    <g id="Group_1" data-name="Group 1" transform="translate(-19.126 86.762)">
      <g transform="matrix(1, 0, 0, 1, 19.13, -86.76)" filter="url(#صنعة)">
        <text id="صنعة-2" data-name="صنعة" transform="translate(100.87 456.76)" fill="#fff" font-size="92" font-family="SegoeUI, Segoe UI"><tspan x="0" y="0">صنعة</tspan></text>
      </g>
      <g id="repairing" transform="translate(66.243 245.238)">
        <path id="Path_1" data-name="Path 1" d="M54.342,371.02H29.608a2.326,2.326,0,0,1-2.326-2.325v-6.945A11.769,11.769,0,0,1,39.051,349.98H44.9a11.769,11.769,0,0,1,11.769,11.769v6.945A2.326,2.326,0,0,1,54.342,371.02Z" transform="translate(-19.957 -298.495)" fill="#2682fd"/>
        <path id="Path_2" data-name="Path 2" d="M147.451,349.98h-4.413a11.769,11.769,0,0,1,11.769,11.769v6.945a2.326,2.326,0,0,1-2.326,2.326h4.413a2.326,2.326,0,0,0,2.326-2.326v-6.945A11.769,11.769,0,0,0,147.451,349.98Z" transform="translate(-118.684 -298.495)" fill="#036ffe"/>
        <path id="Path_3" data-name="Path 3" d="M314.269,0a13.883,13.883,0,0,0-11.6,21.5l-2.226,4.525a1.481,1.481,0,0,0,1.813,1.813l4.564-2.245A13.883,13.883,0,1,0,314.269,0Z" transform="translate(-252.885)" fill="#b6c4cf"/>
        <path id="Path_4" data-name="Path 4" d="M381.959,0a13.989,13.989,0,0,0-2.207.175,13.883,13.883,0,0,1,0,27.413A13.882,13.882,0,1,0,381.959,0Z" transform="translate(-320.575)" fill="#9facba"/>
        <circle id="Ellipse_1" data-name="Ellipse 1" cx="4.578" cy="4.578" r="4.578" transform="translate(32.998 31.889) rotate(-45)" fill="#fed2a4"/>
        <path id="Path_5" data-name="Path 5" d="M29.727,99.6H17.72a9.048,9.048,0,0,0-9.048,8.986l-.025,3.677c-.062,0-.124,0-.187,0a4.578,4.578,0,1,0,0,9.155c.131,0,.261-.007.389-.018a15.067,15.067,0,0,0,11.826,12.035v4.508a3.164,3.164,0,0,0,3.164,3.164h.168a3.164,3.164,0,0,0,3.164-3.164v-4.627c6.616-1.584,9.622-7.536,9.622-14.638l.068-9.965C36.9,103.693,34.749,99.6,29.727,99.6Z" transform="translate(0 -84.951)" fill="#fed2a4"/>
        <path id="Path_6" data-name="Path 6" d="M131.568,99.6h-4.413a9.048,9.048,0,0,1,9.048,9.11l-.068,9.965a15.055,15.055,0,0,1-12.845,14.89,15.059,15.059,0,0,0,17.258-14.89l.068-9.965A9.048,9.048,0,0,0,131.568,99.6Z" transform="translate(-101.84 -84.951)" fill="#ffbd86"/>
        <path id="Path_7" data-name="Path 7" d="M83.54,231.152a1.1,1.1,0,0,1-1.1-1.1V228.97a1.1,1.1,0,0,1,2.207,0v1.078A1.1,1.1,0,0,1,83.54,231.152Z" transform="translate(-66.998 -194.346)" fill="#384949"/>
        <path id="Path_8" data-name="Path 8" d="M176.031,231.152a1.1,1.1,0,0,1-1.1-1.1V228.97a1.1,1.1,0,0,1,2.207,0v1.078A1.1,1.1,0,0,1,176.031,231.152Z" transform="translate(-145.883 -194.346)" fill="#384949"/>
        <path id="Path_9" data-name="Path 9" d="M122.3,269.118a3.044,3.044,0,0,1-2.656-1.561,1.1,1.1,0,0,1,1.928-1.074.833.833,0,0,0,1.458,0,1.1,1.1,0,0,1,1.93,1.069A3.042,3.042,0,0,1,122.3,269.118Z" transform="translate(-98.615 -226.794)" fill="#ffbd86"/>
        <path id="Path_10" data-name="Path 10" d="M68.965,188.451a1.1,1.1,0,0,1-.6-2.033,4.458,4.458,0,0,1,4.174-.338,1.1,1.1,0,0,1-.875,2.026,2.254,2.254,0,0,0-2.111.172A1.1,1.1,0,0,1,68.965,188.451Z" transform="translate(-54.566 -158.393)" fill="#c86d36"/>
        <path id="Path_11" data-name="Path 11" d="M173.74,188.45a1.1,1.1,0,0,1-.593-.174,2.254,2.254,0,0,0-2.111-.172,1.1,1.1,0,0,1-.875-2.026,4.458,4.458,0,0,1,4.174.338,1.1,1.1,0,0,1-.6,2.033Z" transform="translate(-141.249 -158.392)" fill="#c86d36"/>
        <path id="Path_12" data-name="Path 12" d="M56.407,51.833h-10.1a10,10,0,0,0-10,10v5.895L46.938,66.66a44.248,44.248,0,0,1,8.836,0l10.632,1.067V61.832A10,10,0,0,0,56.407,51.833Z" transform="translate(-27.653 -44.208)" fill="#006af8"/>
        <path id="Path_13" data-name="Path 13" d="M42.525,151.343l-6.219.624v.443l10.632-1.067q1.1-.111,2.211-.166A44.275,44.275,0,0,0,42.525,151.343Z" transform="translate(-27.653 -128.891)" fill="#ef4424"/>
        <path id="Path_14" data-name="Path 14" d="M147.358,51.833h-4.413a10,10,0,0,1,10,10v5.452l4.413.443V61.832A10,10,0,0,0,147.358,51.833Z" transform="translate(-118.605 -44.208)" fill="#004198"/>
        <path id="Path_15" data-name="Path 15" d="M42.523,133.905l-9.119.873a2.187,2.187,0,0,0-2.025,2.136,2.212,2.212,0,0,0,2.475,2.136l8.67-.83a48.6,48.6,0,0,1,9.261,0l8.67.83a2.212,2.212,0,0,0,2.475-2.136,2.187,2.187,0,0,0-2.025-2.136l-9.119-.873a48.6,48.6,0,0,0-9.261,0Z" transform="translate(-23.451 -114.018)" fill="#2682fd"/>
        <path id="Path_16" data-name="Path 16" d="M139.568,134.783l-9.119-.873a48.605,48.605,0,0,0-6.837-.17q1.213.055,2.424.17l9.119.873a2.187,2.187,0,0,1,2.025,2.136,2.126,2.126,0,0,1-1.1,1.845l3.039.291a2.212,2.212,0,0,0,2.475-2.136A2.188,2.188,0,0,0,139.568,134.783Z" transform="translate(-102.116 -114.023)" fill="#006af8"/>
        <path id="Path_17" data-name="Path 17" d="M173.794,413.173H169.97A1.171,1.171,0,0,1,168.8,412v-1.512a1.171,1.171,0,0,1,1.171-1.171h3.825a1.171,1.171,0,0,1,1.171,1.171V412A1.17,1.17,0,0,1,173.794,413.173Z" transform="translate(-140.655 -349.105)" fill="#fff3ef"/>
        <path id="Path_18" data-name="Path 18" d="M85.74,470.253v-2.82a1.1,1.1,0,1,0-2.207,0v2.82Z" transform="translate(-67.933 -397.728)" fill="#2442d7"/>
        <path id="Path_19" data-name="Path 19" d="M181.74,470.253v-2.82a1.1,1.1,0,1,0-2.207,0v2.82Z" transform="translate(-149.81 -397.728)" fill="#2442d7"/>
        <path id="Path_20" data-name="Path 20" d="M356.023,52.746l-1.223-.423a6.721,6.721,0,0,0-.023-4.34L356,47.56a.635.635,0,0,0,.378-.85,8.63,8.63,0,0,0-4.572-4.539.635.635,0,0,0-.846.38l-.42,1.223a6.72,6.72,0,0,0-4.34.021l-.422-1.224a.633.633,0,0,0-.845-.379,8.63,8.63,0,0,0-4.548,4.574.635.635,0,0,0,.383.847l1.222.414a6.721,6.721,0,0,0,.017,4.344l-1.224.421a.635.635,0,0,0-.379.849,8.7,8.7,0,0,0,4.548,4.595.637.637,0,0,0,.859-.378l.416-1.236,0-.012.008-.025a6.72,6.72,0,0,0,4.34-.016l.42,1.224a.633.633,0,0,0,.845.38,8.629,8.629,0,0,0,4.558-4.581A.635.635,0,0,0,356.023,52.746Zm-8.458-.108a2.593,2.593,0,1,1,3.285-1.629,2.6,2.6,0,0,1-3.285,1.629Z" transform="translate(-286.956 -35.925)" fill="#26a6fe"/>
        <path id="Path_21" data-name="Path 21" d="M401.048,52.747l-1.224-.423a6.719,6.719,0,0,0-.023-4.34l1.223-.422a.635.635,0,0,0,.378-.85,8.63,8.63,0,0,0-4.572-4.539.635.635,0,0,0-.846.38l-.42,1.223a6.73,6.73,0,0,0-1.619-.329,9.2,9.2,0,0,1-.819,13.484,6.744,6.744,0,0,0,2.479-.361l.42,1.224a.633.633,0,0,0,.845.38,8.629,8.629,0,0,0,4.558-4.581A.635.635,0,0,0,401.048,52.747Z" transform="translate(-331.981 -35.926)" fill="#0593fc"/>
      </g>
    </g>
  </g>
</svg>
